<?xml version="1.0" encoding="UTF-8"?><svg id="Livello_2" xmlns="http://www.w3.org/2000/svg" xmlns:xlink="http://www.w3.org/1999/xlink" viewBox="0 0 8.5 8.5"><defs><style>.cls-1{fill:#fff;}.cls-2{fill:#284a9a;}</style><symbol id="Aeroporto2022" viewBox="0 0 8.5 8.5"><g><circle class="cls-2" cx="4.25" cy="4.25" r="4.25"/><g><path class="cls-1" d="M.85,3.82c.19-.13,.29-.13,.49,.01,.18,.13,.36,.26,.53,.39,.1,.07,.19,.09,.3,.04,.8-.36,1.6-.72,2.4-1.07,.58-.26,1.16-.53,1.76-.76,.38-.15,.78-.12,1.14,.11,.03,.02,.06,.05,.09,.08,.11,.12,.12,.19-.02,.28-.24,.16-.48,.31-.73,.45-.35,.19-.72,.35-1.08,.54-.06,.03-.11,.09-.13,.15-.34,.73-.68,1.47-1.03,2.21-.1,.22-.26,.4-.5,.48-.04,.01-.09,.02-.14,.03,0-.05-.03-.11-.03-.16,.06-.35,.13-.69,.19-1.04,.06-.32,.12-.65,.18-1-.1,.04-.18,.07-.25,.11-.54,.24-1.08,.47-1.66,.6-.24,.05-.48,.1-.73,.04-.14-.03-.24-.1-.31-.24-.14-.32-.28-.64-.43-.95-.02-.04-.04-.07-.07-.11,0-.05,0-.11,0-.16Z"/><path class="cls-1" d="M4.25,3.07c-.33,.15-.64,.29-.95,.42-.03,.01-.08,0-.11,0-.3-.18-.6-.36-.89-.55-.04-.03-.07-.08-.11-.12,.04-.03,.08-.06,.12-.09,.21-.12,.43-.12,.65-.06,.41,.12,.81,.24,1.21,.37,.02,0,.03,.02,.07,.04Z"/></g></g></symbol></defs><g id="SIMBOLI"><g id="aeroporto22"><use width="8.5" height="8.5" xlink:href="#Aeroporto2022"/></g></g></svg>