<?xml version="1.0" encoding="UTF-8"?><svg id="Livello_2" xmlns="http://www.w3.org/2000/svg" xmlns:xlink="http://www.w3.org/1999/xlink" viewBox="0 0 8.5 8.5"><defs><style>.cls-1{fill:#fff;}.cls-2{fill:#e6007e;}</style><symbol id="Falesia2022" viewBox="0 0 8.5 8.5"><g><circle class="cls-2" cx="4.25" cy="4.25" r="4.25"/><g><path class="cls-1" d="M2.62,3.59c.35-.12,.69-.24,1.03-.36,.26-.09,.52-.18,.79-.27,.06-.02,.11-.05,.15-.1,.31-.37,.63-.74,.94-1.12,.07-.08,.13-.16,.24-.19,.14-.03,.29,.02,.37,.14,.08,.11,.09,.27,0,.39-.1,.14-.21,.27-.31,.4-.33,.41-.66,.82-.99,1.23-.01,.01-.02,.03-.02,.05,0,.17,0,.35,0,.54,.14-.08,.28-.15,.4-.23,.54-.35,.92-.82,1.19-1.4,.16-.36,.27-.73,.35-1.11,.01-.06,.03-.11,.09-.13,.05-.02,.1-.02,.14,.02,.05,.04,.06,.09,.05,.14-.07,.36-.17,.71-.31,1.04-.21,.5-.49,.94-.88,1.31-.23,.22-.5,.4-.78,.55-.01,0-.02,.01-.03,.03,.09-.04,.18-.08,.27-.12,.14-.06,.28-.12,.41-.18,.23-.1,.47,.06,.49,.31,.02,.3,.05,.6,.08,.89,.02,.24,.05,.48,.06,.72,0,.23-.18,.4-.41,.4-.22,0-.4-.17-.42-.4-.02-.3-.05-.6-.08-.89,0-.01,0-.02,0-.04-.12,.05-.23,.1-.35,.15-.26,.11-.51,.22-.77,.33-.02,.01-.05,.04-.06,.06-.19,.54-.38,1.07-.56,1.61-.08,.22-.31,.34-.53,.27-.21-.07-.33-.31-.26-.53,.22-.63,.44-1.26,.65-1.9,.01-.04,.03-.06,.07-.07,.38-.16,.76-.33,1.14-.5,.04-.02,.05-.03,.05-.08,0-.08,0-.07,0-.16-.43,.19-.87,.37-1.29,.56-.03-.27-.06-.63-.09-.9-.22,.06-.42,.12-.63,.17-.11,.03-.22,.06-.33,.09-.12,.03-.2,0-.27-.11-.21-.33-.43-.66-.64-.99-.15-.22-.05-.49,.2-.55,.14-.03,.28,.03,.37,.16,.16,.24,.32,.49,.48,.73,0,.01,.01,.02,.03,.04Z"/><path class="cls-1" d="M4.39,2.1c0,.38-.31,.69-.69,.7-.38,0-.69-.31-.69-.69,0-.38,.3-.69,.69-.7,.38,0,.69,.3,.7,.69Z"/><path class="cls-1" d="M4.94,5.71c0,.13,0,.25,0,.38,0,.51,0,1.03,0,1.54,0,.09-.05,.15-.13,.16-.08,0-.14-.06-.14-.15,0-.59,0-1.18,0-1.78,0-.02,.02-.05,.04-.06,.07-.03,.15-.06,.23-.09Z"/></g></g></symbol></defs><g id="SIMBOLI"><use width="8.5" height="8.5" xlink:href="#Falesia2022"/></g></svg>