<?xml version="1.0" encoding="utf-8"?>
<!-- Generator: Adobe Illustrator 26.4.0, SVG Export Plug-In . SVG Version: 6.00 Build 0)  -->
<svg version="1.1" baseProfile="tiny" id="Livello_1"
	 xmlns="http://www.w3.org/2000/svg" xmlns:xlink="http://www.w3.org/1999/xlink" x="0px" y="0px" viewBox="0 0 283.5 283.5"
	 overflow="visible" xml:space="preserve">
<g id="XMLID_00000041270222389109493350000013467567943810052995_">
	<g>
		<g id="e-bike_00000081635936922743403320000002181598329077962672_">
			<circle fill="#E50C7E" cx="141.7" cy="141.7" r="141.7"/>
		</g>
		<g>
			<path fill="#FFFFFF" d="M121,62.9c14.8,0,30.4,0,46.1,0c-0.2-6.2-0.6-6.6-6.7-6.6c-2.3,0-5,0.7-6.8-0.3c-2.2-1.2-5-3.8-5-5.7
				c0-1.9,3.1-5.4,5-5.5c13.4-1,21.1-1.3,26.1,14.9c2.7,8.8,5.9,17.4,8.9,26.1c0.1,0.3,0.5,0.6,0.4,0.5c7,0,13.8-1,20.2,0.2
				c19.4,3.6,33.1,21.5,31.7,40.2c-1.5,19.9-17.2,36-36.2,37.2c-20.2,1.2-37.9-11.7-41.6-31.5c-2.7-14.2,1.3-26.7,12.1-36.6
				c2.8-2.5,3.7-4.5,0.7-7.7c-10.3,12.2-20.7,24-30.6,36.2c-3.8,4.7-7.7,7-13.7,6.3c-3.4-0.4-6.9-0.1-9.5-0.1
				c-3.3,6.4-5.5,12.6-9.3,17.8c-11.3,15.8-33,20.2-50,10.8c-17-9.4-24.6-30-17.8-48.2c6.8-18.2,26.2-29,45-24.3
				c5.6,1.4,8.4,0.3,10.6-4.8c1.7-3.8,4.3-7.3,6.4-10.9c3-5.4,1.8-7.7-4.3-7.6c-6.2,0.1-5.9-4.5-6-8.4c-0.2-4.7,2.9-7.6,7.6-7.3
				c4.2,0.2,8.4,0.7,12.6,1.2c3.6,0.5,8.2,0.7,8.2,5.4C125.2,56.9,122.6,59.7,121,62.9z M181.9,106.4c-8.9,7.1-10.6,21.7-3.4,32.9
				c7.6,11.9,22.8,16.1,35.4,9.7c12.6-6.4,18.3-21.2,13.3-34.3c-5.2-13.3-19-20-33.8-16c1.7,7.9,5.9,14.4,11.2,20.3
				c2.9,3.2,4.7,6.6,0.7,9.9c-3.9,3.2-7.3,1.2-9.8-2.3C190.8,120,186.4,113.2,181.9,106.4z M90.3,98.7c-17-4.1-31.9,4.5-35.3,19.5
				c-3.6,15.9,6.5,30.6,22.9,33.4c13.7,2.4,27.9-7.5,29.9-21.3c-7.9,0-15.7,0-23.6,0c-8.3,0-10.5-3.8-6.4-10.8
				C81.9,112.8,86,106.1,90.3,98.7z M123.9,75.4c4.3,13.1,8.6,26,13.2,39.9c11.6-13.7,22.5-26.6,34.2-40.4c-15.9,0-30.3,0-44.7,0
				C125.9,74.9,125.2,75.1,123.9,75.4z M107,93.9c0.5-0.2,1.1-0.4,1.6-0.6c3.8,7.5,7.4,15.2,11.4,22.6c0.8,1.4,2.8,2.1,4.3,3.1
				c0.3-0.4,0.7-0.9,1-1.3c-3.8-11.3-7.6-22.6-11.7-35C111.1,87.2,109.1,90.6,107,93.9z M92.5,118.5c5.7,0,10.5,0,16.9,0
				c-3-5.2-5.5-9.4-8.4-14.5C97.8,109.4,95.3,113.7,92.5,118.5z"/>
			<path fill="#FFFFFF" d="M57.1,224.1c7.9,0,15,0.2,22.1-0.1c1.9-0.1,4.4-1.4,5.4-3c8.6-13.1,8.6-13.3,0.1-26.7
				c-1.2-1.8-4-3.4-6.2-3.5c-6.8-0.5-13.7-0.2-20.8-0.2c7.1-15.3,35.4-23,51.2-1.7c2.7,3.6,5.1,4.8,9.4,4.8
				c16.2-0.2,32.4-0.2,48.6,0c3.2,0,5.2-1,7-3.7c8.4-12.3,22.8-17,36.5-12.2c13.2,4.6,22.1,17.6,21.3,31.1
				c-0.8,14.5-11.1,27-25.5,29.7c-13.1,2.4-24.1-1.8-31.8-12.8c-2.4-3.4-4.7-4.2-8.5-4.2c-16.2,0.2-32.4,0.2-48.6,0
				c-3.6,0-5.8,0.9-8,4C96.3,244,69.2,243.6,57.1,224.1z M200,224.6c3.3-0.6,8.2,0.1,10-2c3.8-4.4,8.4-10.1,8.3-15.3
				c0-5.2-4.9-10.6-8.4-15.3c-1.1-1.5-4.9-1.4-7.4-1.3c-4.3,0.1-10-0.8-12.5,1.5c-4.1,3.9-8.4,10-8.4,15.2c0,5.2,4.5,10.9,8.3,15.3
				C191.7,224.7,196.4,224.1,200,224.6z"/>
		</g>
	</g>
</g>
<g>
</g>
<g>
</g>
<g>
</g>
<g>
</g>
<g>
</g>
<g>
</g>
<g>
</g>
<g>
</g>
<g>
</g>
<g>
</g>
</svg>
