<?xml version="1.0" encoding="UTF-8"?><svg id="Livello_2" xmlns="http://www.w3.org/2000/svg" xmlns:xlink="http://www.w3.org/1999/xlink" viewBox="0 0 8.5 8.5"><defs><style>.cls-1{fill:#fff;}.cls-2{fill:#284a9a;}</style><symbol id="Astro2022" viewBox="0 0 8.5 8.5"><g><circle class="cls-2" cx="4.25" cy="4.25" r="4.25"/><g><path class="cls-1" d="M3.15,2.64c-.05,.11-.09,.21-.14,.31-.49,1.14,.18,2.43,1.39,2.69,.41,.09,.81,.04,1.19-.13,.1-.04,.19-.08,.3-.13-.02,.05-.04,.08-.05,.12-.1,.24-.21,.47-.38,.68-.37,.46-.85,.74-1.44,.81-1.13,.15-2.16-.55-2.44-1.65-.27-1.06,.27-2.13,1.25-2.56,.1-.04,.2-.09,.31-.14Zm-.49,.53c-.59,.38-1,1.13-.84,1.98,.15,.81,.81,1.48,1.7,1.58,.79,.09,1.5-.31,1.85-.86-.81,.18-1.53,0-2.11-.58-.59-.59-.76-1.31-.59-2.12Z"/><path class="cls-1" d="M4.83,3.26c-.13,.1-.25,.18-.37,.27-.03,.02-.03,.04-.02,.07,.05,.14,.09,.28,.13,.43-.13-.1-.26-.19-.4-.29-.13,.1-.26,.19-.41,.3,.05-.17,.1-.32,.15-.48-.13-.1-.26-.19-.4-.29,0,0,0,0,0,0,.06,0,.12,0,.19,0,.09,0,.17,0,.26,0,.03,0,.05,0,.06-.04,.04-.13,.08-.26,.13-.39,0-.01,0-.02,.01-.04,.03,.1,.07,.2,.1,.29,.02,.05,.03,.1,.05,.14,0,.03,.02,.04,.05,.04,.14,0,.29,0,.43,0,0,0,.01,0,.04,0Z"/><path class="cls-1" d="M6.41,2.74c-.12-.09-.24-.17-.35-.26-.04-.03-.07-.03-.11,0-.11,.09-.23,.17-.35,.26,.04-.12,.07-.22,.11-.33,.02-.05,.05-.11,.04-.15-.01-.04-.07-.06-.12-.09-.08-.06-.16-.12-.25-.18,0,0-.02-.01-.03-.03,.13,0,.24,0,.36,0,.05,0,.11,.01,.14-.01,.03-.02,.03-.08,.05-.13,.04-.11,.07-.22,.11-.32,0,0,0,0,0,0,0,.02,.01,.03,.02,.05,.04,.13,.08,.26,.12,.39,0,.03,.02,.04,.05,.04,.15,0,.3,0,.47,0-.03,.02-.04,.03-.06,.04-.11,.08-.21,.16-.32,.23-.02,.02-.03,.03-.02,.06,.05,.14,.09,.29,.14,.44Z"/><path class="cls-1" d="M6.26,4.52c-.14,.1-.27,.19-.41,.3,.05-.15,.09-.28,.14-.42,.02-.05,.01-.07-.03-.1-.11-.07-.21-.15-.31-.23-.01,0-.02-.02-.04-.03,.07,0,.13,0,.18,0,.09,0,.18,0,.26,0,.04,0,.06-.01,.07-.05,.04-.13,.08-.25,.12-.38,0-.01,.01-.03,.02-.05,.05,.16,.1,.32,.16,.48h.5c-.07,.05-.13,.09-.19,.14-.06,.05-.12,.09-.19,.13-.03,.02-.03,.04-.02,.06,.04,.13,.08,.26,.13,.39,0,.01,0,.03,.02,.05-.14-.1-.27-.2-.41-.3Z"/><path class="cls-1" d="M2.66,3.18c-.18,.81,0,1.53,.59,2.12,.59,.59,1.31,.76,2.11,.58-.35,.56-1.06,.95-1.85,.86-.88-.1-1.55-.77-1.7-1.58-.16-.85,.26-1.61,.84-1.98Z"/></g></g></symbol></defs><g id="SIMBOLI"><g id="astro22"><use width="8.5" height="8.5" xlink:href="#Astro2022"/></g></g></svg>