<?xml version="1.0" encoding="UTF-8"?><svg id="Livello_2" xmlns="http://www.w3.org/2000/svg" xmlns:xlink="http://www.w3.org/1999/xlink" viewBox="0 0 8.5 8.5"><defs><style>.cls-1{fill:#fff;}.cls-2{fill:#e30613;}</style><symbol id="attrazione3" viewBox="0 0 8.5 8.5"><g><circle class="cls-2" cx="4.25" cy="4.25" r="4.25"/><path class="cls-1" d="M7.07,5.65c-.05,.23-.17,.37-.4,.43-.2,.05-.39,.02-.57-.05-.3-.12-.5-.35-.67-.62-.13-.22-.27-.43-.47-.58-.07-.05-.14-.09-.22-.11-.18-.06-.35,.07-.36,.26-.01,.23,.06,.44,.15,.64,.09,.2,.21,.4,.28,.61,.11,.32,.08,.64-.11,.93-.24,.37-.68,.38-.92,0-.21-.33-.22-.69-.07-1.04,.08-.2,.19-.39,.28-.58,.07-.16,.12-.32,.12-.5,0-.29-.23-.42-.48-.28-.22,.13-.36,.33-.5,.53-.12,.18-.24,.37-.39,.52-.24,.24-.54,.34-.88,.29-.38-.06-.55-.43-.36-.8,.16-.31,.43-.49,.77-.55,.22-.04,.44-.04,.66-.06,.19-.02,.39-.05,.56-.16,.26-.16,.25-.42-.01-.56-.19-.1-.41-.14-.62-.15-.27-.01-.54,0-.79-.11-.3-.12-.53-.32-.62-.64-.1-.34,.12-.65,.48-.66,.5-.02,.84,.23,1.09,.63,.14,.22,.27,.44,.46,.6,.05,.04,.11,.09,.17,.12,.26,.15,.45-.04,.46-.27,0-.2-.05-.39-.14-.56-.08-.18-.19-.36-.26-.55-.14-.36-.13-.71,.08-1.04,.24-.36,.67-.36,.9,0,.24,.37,.22,.75,.05,1.13-.1,.22-.21,.42-.3,.64-.05,.12-.06,.26-.07,.4,0,.22,.19,.35,.4,.27,.21-.08,.35-.24,.48-.41,.14-.19,.25-.4,.41-.58,.26-.3,.61-.44,1.01-.36,.21,.05,.36,.18,.38,.41,0,.01,0,.02,.01,.03v.07s-.02,.08-.03,.12c-.14,.43-.46,.65-.89,.72-.23,.04-.47,.03-.7,.06-.18,.02-.35,.06-.5,.17-.21,.14-.21,.39,.01,.51,.14,.07,.29,.13,.45,.15,.23,.04,.46,.04,.69,.06,.27,.03,.51,.14,.71,.34,.14,.14,.22,.31,.26,.5v.09Z"/></g></symbol></defs><g id="SIMBOLI"><use width="8.5" height="8.5" xlink:href="#attrazione3"/></g></svg>