<?xml version="1.0" encoding="UTF-8"?><svg id="Livello_2" xmlns="http://www.w3.org/2000/svg" xmlns:xlink="http://www.w3.org/1999/xlink" viewBox="0 0 9.35 9.35"><defs><style>.cls-1{fill:#fff;}.cls-2{fill:none;stroke:#e30613;stroke-miterlimit:10;stroke-width:.43px;}.cls-3{fill:#e30613;}</style><symbol id="Bivacco2023" viewBox="0 0 9.35 9.35"><g><circle class="cls-3" cx="4.68" cy="4.68" r="4.68"/><g><g><path class="cls-1" d="M4.68,1.47c1.69,0,2.94,.78,2.93,1.85,0,1.29-.02,2.58-.03,3.88,0,.19,0,.36-.41,.36-1.69,0-3.38,0-5.06,0-.09,0-.19-.03-.32-.04,0-.12-.02-.23-.02-.34-.01-1.28-.03-2.57-.04-3.85,0-1.06,1.25-1.84,2.94-1.84Zm.74,5.58v-2.43h-1.5v2.43h1.5Z"/><path class="cls-3" d="M5.42,4.61v2.43h-1.5v-2.43h1.5Z"/></g><path class="cls-2" d="M5.42,7.05v-2.43h-1.5v2.43h1.5Z"/></g></g></symbol></defs><g id="SIMBOLI"><use width="9.35" height="9.35" xlink:href="#Bivacco2023"/></g></svg>