<?xml version="1.0" encoding="UTF-8"?><svg id="Livello_2" xmlns="http://www.w3.org/2000/svg" viewBox="0 0 8.5 8.5"><defs><style>.cls-1,.cls-2{fill:#fff;}.cls-2{fill-rule:evenodd;}.cls-3{fill:#254a96;}</style></defs><g id="SIMBOLI"><g id="cabinovia"><circle class="cls-3" cx="4.25" cy="4.25" r="4.25"/><g><path class="cls-1" d="M3.65,2.55c.11,0,.2-.05,.28-.12,.07-.07,.11-.17,.11-.26,0-.11-.04-.19-.11-.27-.07-.07-.17-.11-.28-.11s-.2,.04-.27,.11c-.07,.07-.11,.16-.11,.27,0,.09,.04,.19,.11,.26,.07,.07,.16,.12,.27,.12Z"/><path class="cls-1" d="M4.57,2.2c.1,0,.19-.04,.26-.11,.07-.08,.11-.17,.11-.27,0-.11-.04-.21-.11-.29-.06-.08-.16-.11-.26-.11-.11,0-.2,.04-.29,.11-.07,.07-.12,.18-.12,.29,0,.1,.05,.18,.12,.27,.08,.07,.18,.11,.29,.11Z"/><polygon class="cls-1" points=".53 4.01 .53 4.25 7.61 1.58 7.61 1.36 .53 4.01"/></g><path class="cls-2" d="M5.2,6.72c0,.14-.04,.27-.08,.38-.06,.12-.13,.21-.21,.31-.09,.08-.19,.15-.32,.19-.12,.06-.25,.08-.39,.08-.13,0-.26-.02-.37-.08-.12-.05-.22-.11-.31-.19-.09-.09-.17-.19-.21-.31-.05-.11-.08-.24-.08-.38v-1.92c0-.12,.04-.24,.09-.35,.06-.11,.13-.21,.21-.3,.09-.07,.19-.15,.31-.19,.11-.05,.23-.07,.36-.07,.14,0,.27,.03,.38,.07,.12,.05,.22,.12,.32,.2,.09,.08,.17,.18,.22,.3,.05,.11,.08,.23,.09,.36v1.9Z"/><path class="cls-3" d="M4.61,4.97h-.82c-.08,0-.13,.04-.13,.12v.81s0,.07,.04,.1c.03,.03,.07,.04,.09,.04h.82s.07-.01,.08-.04c.03-.03,.04-.07,.04-.1v-.81s0-.07-.04-.09c-.02-.02-.06-.03-.08-.03Z"/></g></g></svg>