<?xml version="1.0" encoding="UTF-8"?><svg id="Livello_2" xmlns="http://www.w3.org/2000/svg" xmlns:xlink="http://www.w3.org/1999/xlink" viewBox="0 0 8.5 8.5"><defs><style>.cls-1{fill:#fff;}.cls-2{fill:#284a9a;}</style><symbol id="Camper2023" viewBox="0 0 8.5 8.5"><g><circle class="cls-2" cx="4.25" cy="4.25" r="4.25"/><g><path class="cls-1" d="M7.39,4.52h-2.61s0-.04,0-.06c0-.41,0-.82,0-1.23,0-.04,0-.07-.01-.11-.02-.07-.09-.13-.18-.13-.23,0-.45,0-.68,0-.1,0-.17,.07-.18,.16,0,.03,0,.06,0,.09,0,.4,0,.8,0,1.21,0,.06,0,.06-.06,.06-.92,0-1.84,0-2.75,0h-.06s0-.04,0-.06c0-.49,0-.98,0-1.47,0-.32,.19-.58,.49-.68,.15-.05,.31-.07,.46-.07,.89,0,1.78,0,2.67,0,.3,0,.61-.03,.91-.04,.19-.01,.39-.03,.58-.04,.19,0,.38-.02,.56-.02,.18,0,.37,.04,.55,.06,.06,0,.13,.01,.19,.04,.11,.05,.16,.13,.16,.25,0,.2,0,.41,0,.61,0,.16-.1,.26-.26,.26-.32,0-.64,0-.96,0-.05,0-.1,0-.14,0,0,0,0,.01,0,.02,.01,0,.03,0,.04,.01,.1,.03,.16,.09,.21,.18,.09,.18,.18,.35,.27,.53,.09,.19,.25,.29,.45,.34,.09,.02,.19,.05,.28,.07,.02,0,.05,.02,.07,.02,0,0,0,0,0,0ZM2.02,2.99c-.14,0-.28,0-.42,0-.11,0-.19,.08-.19,.19,0,.16,0,.31,0,.47,0,.1,.07,.17,.17,.19,.02,0,.05,0,.07,0,.25,0,.5,0,.74,0,.02,0,.05,0,.07,0,.09-.01,.16-.08,.16-.17,0-.17,0-.33,0-.5,0-.11-.09-.18-.2-.18-.14,0-.27,0-.41,0Zm3.82,1.31c.15,0,.31,0,.46,0,.09,0,.11-.04,.08-.12-.09-.18-.19-.36-.28-.54-.04-.08-.1-.12-.18-.12-.18,0-.36,0-.54,0-.08,0-.13,.05-.13,.13,0,.18,0,.35,0,.53,0,.08,.05,.12,.13,.12,.15,0,.31,0,.46,0Zm.85-1.38c.09,0,.18,0,.27,0,.06,0,.08-.03,.09-.09,0-.06,0-.13,0-.19,0-.06-.02-.08-.08-.08-.19,0-.37,0-.56,0-.05,0-.08,.03-.08,.08,0,.06,0,.13,0,.19,0,.07,.02,.09,.09,.09,.09,0,.18,0,.26,0Z"/><path class="cls-1" d="M.85,4.62h.06c.92,0,1.84,0,2.75,0q.06,0,.06,.06c0,.16,0,.31,0,.47,0,.11,.04,.18,.14,.21,.02,0,.05,0,.07,0,.21,0,.42,0,.63,0,.13,0,.21-.08,.21-.21,0-.16,0-.32,0-.49,0-.04,.01-.06,.06-.06,.89,0,1.77,0,2.66,0,.04,0,.06,.01,.08,.05,.05,.09,.07,.19,.07,.29,0,.21,0,.42,0,.64,0,.14-.1,.24-.24,.24-.11,0-.21,0-.32,0-.03,0-.04-.01-.04-.04,0-.43-.33-.75-.72-.81-.45-.07-.9,.23-.97,.72,0,.03,0,.06,0,.09,0,.03-.01,.04-.04,.04,0,0-.02,0-.03,0-.61,0-1.21,0-1.82,0-.07,0-.07,0-.07-.07-.02-.4-.31-.69-.64-.77-.45-.11-.91,.15-1.03,.6-.02,.06-.02,.13-.03,.2,0,.03-.01,.04-.04,.04-.16,0-.33,0-.49,0-.13,0-.26-.11-.29-.24-.01-.04-.02-.09-.02-.13,0-.26,0-.52,0-.78,0-.02,0-.03,0-.06Z"/><path class="cls-1" d="M5.6,5.8c0-.33,.26-.58,.6-.59,.32,0,.6,.24,.6,.58,0,.33-.26,.59-.6,.59-.36,0-.6-.28-.6-.58Zm.6,.29c.16,0,.3-.13,.31-.29,0-.16-.13-.3-.3-.3-.17,0-.31,.13-.31,.29,0,.17,.15,.3,.3,.3Z"/><path class="cls-1" d="M1.94,5.8c0-.32,.27-.58,.6-.58,.33,0,.6,.26,.6,.59,0,.31-.25,.58-.6,.58-.36,0-.6-.29-.6-.59Zm.6,.29c.17,0,.3-.14,.31-.29,0-.16-.14-.3-.3-.3-.17,0-.31,.13-.31,.3,0,.17,.13,.29,.3,.3Z"/></g></g></symbol></defs><g id="SIMBOLI"><g id="camper22"><use width="8.5" height="8.5" xlink:href="#Camper2023"/></g></g></svg>