<?xml version="1.0" encoding="UTF-8"?><svg id="Livello_2" xmlns="http://www.w3.org/2000/svg" xmlns:xlink="http://www.w3.org/1999/xlink" viewBox="0 0 8.5 8.5"><defs><style>.cls-1{fill:#fff;}.cls-2{fill:#82368c;}</style><symbol id="cantina2022" viewBox="0 0 8.5 8.5"><g><g id="cantina"><circle class="cls-2" cx="4.25" cy="4.25" r="4.25"/></g><g><path class="cls-1" d="M4.35,1.23c.3,0,.6,0,.89,0,.12,0,.2,.03,.22,.16,.11,.61,.26,1.22,.32,1.83,.07,.68-.3,1.2-.94,1.45-.36,.14-.39,.19-.39,.58,0,.44,.02,.87,0,1.31-.02,.35,.14,.56,.42,.71,.11,.06,.25,.09,.37,.14,.05,.02,.09,.07,.13,.1-.05,.03-.1,.08-.15,.08-.15,.01-.3,0-.46,0-.43,0-.86,0-1.29,0-.06,0-.13-.05-.19-.08,.06-.04,.11-.08,.17-.11,.16-.08,.34-.15,.5-.25,.18-.12,.26-.29,.25-.51-.01-.48,0-.97,0-1.45,0-.32-.04-.38-.35-.5-.48-.19-.86-.51-.96-1.03-.06-.32-.02-.68,.03-1.01,.06-.41,.18-.81,.26-1.22,.03-.16,.12-.21,.27-.21,.29,0,.58,0,.87,0Zm0,.23c-.26,0-.53,0-.79,0-.06,0-.15,.06-.16,.11-.11,.56-.24,1.12-.29,1.69-.06,.59,.33,1.08,.91,1.24,.78,.23,1.62-.4,1.56-1.2-.04-.58-.18-1.16-.29-1.73,0-.05-.1-.11-.16-.11-.26-.01-.53,0-.79,0Z"/><path class="cls-1" d="M3.28,3.13h2.1c.09,.35-.05,.7-.38,.96-.37,.28-.81,.31-1.2,.08-.39-.23-.58-.6-.51-1.04Z"/></g></g></symbol></defs><g id="SIMBOLI"><use width="8.5" height="8.5" xlink:href="#cantina2022"/></g></svg>