<?xml version="1.0" encoding="UTF-8"?><svg id="Livello_2" xmlns="http://www.w3.org/2000/svg" xmlns:xlink="http://www.w3.org/1999/xlink" viewBox="0 0 8.5 8.5"><defs><style>.cls-1{fill:#fff;}.cls-2{fill:#008bce;}</style><symbol id="Cascata2023" viewBox="0 0 8.5 8.5"><g><circle class="cls-2" cx="4.25" cy="4.25" r="4.25"/><g><path class="cls-1" d="M4.86,5.31s0,.05,0,.08c0,.08,0,.16,0,.24,0,.05-.04,.09-.08,.1-.06,.01-.11-.01-.12-.06,0-.03-.02-.05-.02-.08,0-.39,0-.78,.03-1.17,.03-.48,.11-.96,.23-1.43,.08-.32,.19-.64,.35-.93,.04-.07,.09-.14,.13-.21,.03-.05,.08-.09,.14-.11,.29-.13,.59-.2,.91-.21,.11,0,.21,0,.32,0,.05,0,.1,.05,.1,.1,0,.06-.04,.1-.1,.11-.15,0-.3,.02-.45,.03-.23,.02-.45,.08-.67,.17-.06,.02-.09,.07-.12,.12-.15,.24-.25,.5-.33,.77-.13,.42-.21,.85-.26,1.29-.01,.1-.02,.2-.03,.3,0,.03,0,.04,.04,.05,.21,.04,.41,.08,.62,.14,.32,.09,.62,.22,.89,.42,.11,.09,.21,.18,.29,.3,.18,.28,.16,.62-.05,.88-.16,.19-.36,.33-.58,.44-.31,.16-.64,.25-.98,.32-.5,.09-.99,.12-1.5,.07-.46-.04-.91-.12-1.34-.3-.25-.1-.48-.23-.67-.42-.12-.12-.22-.25-.27-.42-.06-.24,0-.45,.15-.64,.13-.17,.3-.29,.48-.39,.24-.14,.5-.23,.77-.3,.04-.01,.08-.02,.13-.03,.03,0,.04-.03,.05-.06,.06-.39,.15-.78,.3-1.15,.19-.48,.45-.92,.79-1.31,.03-.03,.06-.07,.09-.11-.02,0-.03-.02-.04-.02-.18-.07-.36-.11-.55-.12-.15,0-.29-.02-.44-.03-.06,0-.09-.05-.09-.1,0-.06,.05-.11,.1-.11,.07,0,.14,0,.21,0,.24,0,.48,.03,.71,.1,.1,.03,.2,.07,.3,.11,.12,.05,.13,.12,.05,.21-.12,.15-.25,.29-.36,.44-.34,.43-.56,.92-.71,1.44-.09,.32-.15,.64-.18,.97-.02,.23-.04,.46-.05,.68,0,.02,0,.04,0,.05-.01,.06-.05,.09-.11,.09-.05,0-.09-.04-.1-.09,0-.02,0-.05,0-.08-.07,.04-.13,.08-.16,.14-.02,.03,0,.05,0,.08,.03,.05,.08,.09,.13,.11,.08,.02,.16,.04,.24,.06,.01,0,.02,0,.04,0,.06,.02,.08,.05,.07,.11,0,.05-.03,.08-.09,.09-.05,0-.11,0-.16,0-.14-.02-.27-.08-.37-.19-.13-.14-.13-.33,0-.46,.07-.06,.15-.11,.22-.16,.07-.05,.1-.1,.08-.19,0,0-.02,0-.03,0-.18,.07-.34,.16-.48,.29-.07,.07-.13,.15-.14,.26,0,.08,.01,.15,.06,.21,.09,.13,.21,.23,.36,.3,.23,.12,.47,.19,.73,.23,.39,.08,.79,.08,1.18,.04,.33-.03,.64-.11,.95-.24,.15-.07,.28-.16,.39-.29,.13-.15,.11-.35-.02-.48-.12-.13-.27-.22-.42-.29-.18-.08-.36-.13-.56-.17,0,.03,0,.06,0,.09,0,.08,0,.08,.08,.1,.17,.05,.33,.1,.48,.2,.06,.04,.12,.09,.16,.16,.06,.08,.05,.26-.01,.34-.08,.1-.18,.16-.28,.21-.22,.1-.45,.16-.69,.2-.16,.02-.31,.03-.47,.05-.02,0-.03,0-.05,0-.04,0-.07-.02-.09-.06-.02-.04-.02-.08,.02-.11,.02-.02,.04-.04,.08-.04,.31-.02,.62-.06,.92-.16,.13-.04,.25-.09,.35-.18,.08-.07,.08-.12,0-.19-.03-.02-.05-.04-.08-.06-.13-.07-.26-.11-.41-.16Zm-1.98-.56c-.24,.06-.48,.14-.7,.25-.19,.09-.36,.21-.5,.37-.08,.1-.15,.21-.13,.35,0,.03,0,.07,0,.1,0,.01,0,.03,0,.04,.07,.16,.17,.28,.3,.38,.21,.17,.46,.27,.71,.36,.38,.13,.78,.19,1.18,.21,.45,.02,.89,0,1.33-.08,.33-.06,.65-.16,.95-.32,.16-.09,.31-.19,.43-.33,.12-.14,.18-.29,.14-.48-.03-.12-.1-.22-.18-.3-.14-.15-.32-.25-.5-.34-.28-.13-.57-.21-.88-.27-.06-.01-.11-.02-.17-.03,0,0,0,0,0,.01,.03,0,.06,.02,.09,.02,.22,.05,.43,.12,.63,.21,.16,.08,.31,.18,.43,.32,.09,.11,.14,.22,.15,.36,0,.17-.07,.31-.18,.44-.14,.15-.31,.25-.49,.33-.4,.17-.82,.24-1.25,.26-.25,.01-.5,0-.75-.03-.29-.04-.58-.11-.85-.22-.18-.08-.35-.17-.49-.32-.25-.27-.25-.59,0-.85,.13-.14,.3-.24,.47-.31,.07-.03,.13-.05,.2-.08,.02,0,.04-.02,.04-.05Z"/><path class="cls-1" d="M4,5.47c.02-.32,.04-.64,.07-.96,.05-.48,.12-.95,.26-1.41,.14-.45,.34-.87,.63-1.26,.02-.02,.03-.04,.05-.06,.04-.04,.09-.04,.14-.01,.04,.03,.06,.07,.04,.12-.02,.04-.04,.07-.06,.1-.33,.46-.54,.97-.67,1.53-.07,.32-.13,.64-.15,.96-.03,.33-.05,.67-.07,1,0,.08-.01,.17-.02,.25,0,.06-.05,.09-.1,.09-.06,0-.1-.03-.1-.09,0-.09,0-.18,0-.27,0,0,0,0,0,0Z"/><path class="cls-1" d="M3.4,5.38c.02-.23,.04-.47,.07-.7,.03-.33,.09-.65,.17-.97,.13-.52,.33-1.01,.62-1.46,.1-.15,.2-.29,.33-.42,.05-.05,.11-.05,.15-.02,.04,.04,.05,.1,.01,.15-.05,.07-.11,.14-.16,.21-.26,.35-.46,.74-.6,1.15-.11,.32-.19,.64-.24,.98-.04,.27-.07,.54-.1,.81-.02,.17-.03,.34-.03,.5,0,.1-.06,.12-.12,.12-.05,0-.08-.04-.09-.09,0-.09,0-.17,0-.26,0,0,0,0,0,0Z"/></g></g></symbol></defs><g id="SIMBOLI"><g id="cascata22"><use width="8.5" height="8.5" xlink:href="#Cascata2023"/></g></g></svg>