<?xml version="1.0" encoding="utf-8"?>
<!-- Generator: Adobe Illustrator 26.4.0, SVG Export Plug-In . SVG Version: 6.00 Build 0)  -->
<svg version="1.1" baseProfile="tiny" id="Livello_1"
	 xmlns="http://www.w3.org/2000/svg" xmlns:xlink="http://www.w3.org/1999/xlink" x="0px" y="0px" viewBox="0 0 283.5 283.5"
	 overflow="visible" xml:space="preserve">
<g id="XMLID_00000093879388124671592500000004052269602096577701_">
	<g>
		<g id="Bivacco_00000124121039082038562810000008881915640333624248_">
			<circle fill="#E20E18" cx="141.3" cy="141.9" r="141.7"/>
		</g>
		<g>
			<path fill="#FFFFFF" d="M107.3,251.3c-1.6-8-3.1-16.1-4.9-24.1c-0.4-2-1.5-4.3-3-5.5c-11.3-8.9-18.8-20.7-26.1-32.8
				c-6.8-11.3-14.5-22.2-21.9-33.2c-3.4-5-3.3-10,0.6-14c3.5-3.6,8.5-4,13.1-0.1c8.2,7,16.1,14.4,24.1,21.6c1.6,1.4,3.3,2.8,6.1,5
				c0.5-4.1,1.1-7,1.1-10c0.1-34.5,0.1-69,0.1-103.6c0-8.9,3.4-13.6,9.9-13.7c6.7-0.1,10.2,4.6,10.2,13.8c0,23,0,45.9,0,68.9
				c0,2.4-0.2,5,3.2,5.2c3.8,0.1,3.4-2.8,3.4-5.3c0-26.4,0-52.8,0.1-79.2c0-8,3.7-12.3,10.4-12.2c4.4,0,7.6,2.1,8.8,6.4
				c0.8,2.7,1.1,5.5,1.1,8.3c0.1,24.4,0.1,48.7,0.1,73.1c0,1.2-0.4,2.7,0.2,3.7c0.7,1.3,2,2.3,3.1,3.4c1.1-1.1,2.5-2,3.2-3.4
				c0.5-1,0.2-2.4,0.2-3.7c0-22.2,0-44.4,0-66.6c0-6.8,2.2-10.3,7-11.9c5.9-1.9,11.6,1.5,12.7,7.5c0.4,2,0.3,4,0.3,6.1
				c0,22.2,0,44.4,0.1,66.6c0,2.6-1.4,6.9,3.2,6.9c4.7,0.1,3.2-4.2,3.2-6.8c0.1-15.9,0-31.9,0.1-47.8c0-6.9,2.4-10.3,7.8-11.8
				c4.9-1.3,8.8,0.3,10.8,5c1,2.5,1.6,5.4,1.6,8.1c-0.2,38.9-0.4,77.8-1,116.7c-0.1,5.5-1.6,11.2-3.8,16.3
				c-6,13.7-12.7,27.1-19.3,40.6c-0.7,1.3-2.6,2.8-4,2.8c-20,0.2-40,0.1-60,0.1C108.5,251.7,108,251.5,107.3,251.3z"/>
		</g>
		<path fill="#FFFFFF" d="M39.1,93.2"/>
		
			<path fill="none" stroke="#FFFFFF" stroke-width="17.0079" stroke-linecap="square" stroke-linejoin="round" stroke-miterlimit="10" d="
			M40.8,83.7c6.7,5.8,15.9,12.1,27.8,16.2c2.6,0.9,5.1,1.6,7.5,2.2"/>
		
			<path fill="none" stroke="#FFFFFF" stroke-width="17.0079" stroke-linecap="square" stroke-linejoin="round" stroke-miterlimit="10" d="
			M216.4,122.9c7.2,1.3,15.9,2.3,25.5,2.2c5.7-0.1,11-0.5,15.7-1.1"/>
	</g>
</g>
<g>
</g>
<g>
</g>
<g>
</g>
<g>
</g>
<g>
</g>
<g>
</g>
<g>
</g>
<g>
</g>
</svg>
