<?xml version="1.0" encoding="UTF-8"?><svg id="Livello_2" xmlns="http://www.w3.org/2000/svg" xmlns:xlink="http://www.w3.org/1999/xlink" viewBox="0 0 5.1 5.11"><defs><style>.cls-1{fill:#fff;}.cls-2{fill:#db0812;}</style><symbol id="Divieto2022" viewBox="0 0 5.1 5.11"><g><path class="cls-2" d="M5.1,2.56c0,.35-.07,.69-.2,.99-.13,.31-.32,.58-.55,.81-.23,.23-.51,.42-.82,.55-.31,.13-.64,.2-.99,.2s-.69-.07-1-.2c-.31-.13-.58-.32-.81-.55-.23-.23-.41-.5-.54-.81-.13-.31-.2-.64-.2-.99s.07-.68,.2-.99c.13-.31,.31-.58,.54-.82,.23-.23,.5-.42,.81-.55,.31-.13,.64-.2,1-.2s.68,.07,.99,.2c.31,.13,.58,.32,.82,.55,.23,.23,.42,.5,.55,.82,.13,.31,.2,.64,.2,.99Z"/><path class="cls-1" d="M4.12,2.49c0,.22-.04,.42-.12,.61-.08,.19-.19,.36-.34,.5s-.31,.26-.5,.34c-.19,.08-.39,.12-.61,.12s-.42-.04-.61-.12c-.19-.08-.36-.19-.5-.34-.14-.14-.25-.31-.34-.5-.08-.19-.12-.39-.12-.61s.04-.42,.12-.61c.08-.19,.19-.36,.34-.5,.14-.14,.31-.25,.5-.34,.19-.08,.39-.12,.61-.12s.42,.04,.61,.12c.19,.08,.36,.19,.5,.34,.14,.14,.26,.31,.34,.5,.08,.19,.12,.39,.12,.61Z"/></g></symbol></defs><g id="SIMBOLI"><use width="5.1" height="5.11" xlink:href="#Divieto2022"/></g></svg>