<?xml version="1.0" encoding="utf-8"?>
<!-- Generator: Adobe Illustrator 26.4.0, SVG Export Plug-In . SVG Version: 6.00 Build 0)  -->
<svg version="1.1" baseProfile="tiny" id="Livello_1"
	 xmlns="http://www.w3.org/2000/svg" xmlns:xlink="http://www.w3.org/1999/xlink" x="0px" y="0px" viewBox="0 0 283.5 283.5"
	 overflow="visible" xml:space="preserve">
<g id="XMLID_00000164513266446485365770000011523858505038285736_">
	<g>
		<circle fill="#E50C7E" cx="141.7" cy="141.7" r="141.7"/>
		<path fill="#FFFFFF" d="M124.6,221.6c-5.6,0-10.8,0-16.2,0c0.4-0.8,0.6-1.4,0.9-2c7.4-14.3,14.9-28.7,22.3-43
			c0.8-1.5,1.5-2.1,3.3-2.1c8.9,0.1,17.9,0,27.2,0c-6.7,13-13.3,25.7-20.1,38.8c5.4,0,10.5,0,15.6,0c0.1,0.2,0.1,0.3,0.2,0.5
			c-17.5,15.2-34.9,30.5-52.4,45.7c-0.1-0.1-0.2-0.2-0.4-0.2C111.5,246.8,118,234.3,124.6,221.6z"/>
		<g>
			<path fill="#FFFFFF" d="M121,78c14.8,0,30.4,0,46.1,0c-0.2-6.2-0.6-6.6-6.7-6.6c-2.3,0-5,0.7-6.8-0.3c-2.2-1.2-5-3.8-5-5.7
				c0-1.9,3.1-5.4,5-5.5c13.4-1,21.1-1.3,26.1,14.9c2.7,8.8,5.9,17.4,8.9,26.1c0.1,0.3,0.5,0.6,0.4,0.5c7,0,13.8-1,20.2,0.2
				c19.4,3.6,33.1,21.5,31.7,40.2c-1.5,19.9-17.2,36-36.2,37.2c-20.2,1.2-37.9-11.7-41.6-31.5c-2.7-14.2,1.3-26.7,12.1-36.6
				c2.8-2.5,3.7-4.5,0.7-7.7c-10.3,12.2-20.7,24-30.6,36.2c-3.8,4.7-7.7,7-13.7,6.3c-3.4-0.4-6.9-0.1-9.5-0.1
				c-3.3,6.4-5.5,12.6-9.3,17.8c-11.3,15.8-33,20.2-50,10.8c-17-9.4-24.6-30-17.8-48.2c6.8-18.2,26.2-29,45-24.3
				c5.6,1.4,8.4,0.3,10.6-4.8c1.7-3.8,4.3-7.3,6.4-10.9c3-5.4,1.8-7.7-4.3-7.6c-6.2,0.1-5.9-4.5-6-8.4c-0.2-4.7,2.9-7.6,7.6-7.3
				c4.2,0.2,8.4,0.7,12.6,1.2c3.6,0.5,8.2,0.7,8.2,5.4C125.2,72,122.6,74.8,121,78z M181.9,121.5c-8.9,7.1-10.6,21.7-3.4,32.9
				c7.6,11.9,22.8,16.1,35.4,9.7c12.6-6.4,18.3-21.2,13.3-34.3c-5.2-13.3-19-20-33.8-16c1.7,7.9,5.9,14.4,11.2,20.3
				c2.9,3.2,4.7,6.6,0.7,9.9c-3.9,3.2-7.3,1.2-9.8-2.3C190.8,135.1,186.4,128.2,181.9,121.5z M90.3,113.8
				c-17-4.1-31.9,4.5-35.3,19.5c-3.6,15.9,6.5,30.6,22.9,33.4c13.7,2.4,27.9-7.5,29.9-21.3c-7.9,0-15.7,0-23.6,0
				c-8.3,0-10.5-3.8-6.4-10.8C81.9,127.8,86,121.1,90.3,113.8z M123.9,90.4c4.3,13.1,8.6,26,13.2,39.9
				c11.6-13.7,22.5-26.6,34.2-40.4c-15.9,0-30.3,0-44.7,0C125.9,89.9,125.2,90.2,123.9,90.4z M107,109c0.5-0.2,1.1-0.4,1.6-0.6
				c3.8,7.5,7.4,15.2,11.4,22.6c0.8,1.4,2.8,2.1,4.3,3.1c0.3-0.4,0.7-0.9,1-1.3c-3.8-11.3-7.6-22.6-11.7-35
				C111.1,102.2,109.1,105.6,107,109z M92.5,133.5c5.7,0,10.5,0,16.9,0c-3-5.2-5.5-9.4-8.4-14.5C97.8,124.5,95.3,128.7,92.5,133.5z"
				/>
		</g>
	</g>
</g>
<g>
</g>
<g>
</g>
<g>
</g>
<g>
</g>
<g>
</g>
<g>
</g>
<g>
</g>
<g>
</g>
<g>
</g>
<g>
</g>
<g>
</g>
</svg>
