<?xml version="1.0" encoding="UTF-8"?><svg id="Livello_2" xmlns="http://www.w3.org/2000/svg" xmlns:xlink="http://www.w3.org/1999/xlink" viewBox="0 0 9.29 9.27"><defs><style>.cls-1{fill:none;stroke-width:.79px;}.cls-1,.cls-2,.cls-3{stroke-linecap:round;stroke-linejoin:round;}.cls-1,.cls-3{stroke:#fff;}.cls-4{fill:#e30613;}.cls-2{stroke:#8f8f8e;stroke-width:.69px;}.cls-2,.cls-3{fill:#fff;}.cls-3{stroke-width:.28px;}.cls-5{fill:#db0812;}</style><symbol id="Elipiazzola2022" viewBox="0 0 9.29 9.27"><g><polygon class="cls-2" points="5.5 8.79 4.65 8.87 3.79 8.79 3.01 8.57 2.28 8.18 1.64 7.67 1.12 7.02 .74 6.29 .48 5.52 .39 4.66 .48 3.79 .74 2.98 1.12 2.29 1.64 1.64 2.28 1.13 3.01 .74 3.79 .48 4.65 .39 5.5 .48 6.32 .74 7.01 1.13 7.65 1.64 8.17 2.29 8.55 2.98 8.81 3.79 8.9 4.66 8.81 5.52 8.55 6.29 8.17 7.02 7.65 7.67 7.01 8.18 6.32 8.57 5.5 8.79"/><polyline class="cls-1" points="5.5 8.79 4.65 8.87 3.79 8.79 3.01 8.57 2.28 8.18 1.64 7.67 1.12 7.02 .74 6.29 .48 5.52 .39 4.66 .48 3.79 .74 2.98 1.12 2.29 1.64 1.64 2.28 1.13 3.01 .74 3.79 .48 4.65 .39 5.5 .48 6.32 .74 7.01 1.13 7.65 1.64 8.17 2.29 8.55 2.98 8.81 3.79 8.9 4.66 8.81 5.52 8.55 6.29 8.17 7.02 7.65 7.67 7.01 8.18 6.32 8.57 5.5 8.79"/><path class="cls-5" d="M8.87,4.6c0,.58-.11,1.13-.33,1.65-.22,.52-.52,.96-.91,1.35-.38,.38-.83,.68-1.34,.9-.51,.22-1.06,.33-1.64,.33s-1.13-.11-1.65-.33c-.51-.22-.96-.52-1.35-.9-.38-.38-.69-.83-.91-1.35s-.33-1.06-.33-1.65,.11-1.14,.33-1.65c.22-.51,.52-.96,.91-1.34,.38-.38,.83-.68,1.35-.91,.51-.22,1.06-.33,1.65-.33s1.13,.11,1.64,.33c.51,.22,.96,.52,1.34,.91,.38,.38,.69,.83,.91,1.34,.22,.52,.33,1.07,.33,1.65Z"/><g><g><path class="cls-3" d="M7.28,5.18v.35l-1.06,.88h-2.14l-.92-1.13-1.2-.73c-.04,.1-.11,.18-.2,.24-.09,.06-.19,.09-.31,.09-.15,0-.28-.05-.38-.16-.1-.1-.16-.23-.16-.38s.05-.28,.16-.38c.1-.1,.23-.16,.38-.16,.14,0,.26,.05,.36,.14,.1,.09,.16,.21,.18,.34l1.12,.32,.78-.67,.93-.31h.18v-.24h.18v.24h.2l1.08,.51,.81,1.05Z"/><rect class="cls-3" x="2.22" y="2.94" width="5.73" height=".29"/><polygon class="cls-3" points="6.55 6.75 7.05 6.25 7.14 6.33 6.59 6.87 3.54 6.87 3.54 6.75 6.55 6.75"/></g><polygon class="cls-4" points="6.23 4.69 5.52 4.69 5.52 3.98 4.76 3.98 4.76 4.69 4.05 4.69 4.05 5.45 4.76 5.45 4.76 6.17 5.52 6.17 5.52 5.45 6.23 5.45 6.23 4.69"/></g></g></symbol></defs><g id="SIMBOLI"><use width="9.29" height="9.27" xlink:href="#Elipiazzola2022"/></g></svg>