<?xml version="1.0" encoding="UTF-8"?><svg id="Livello_2" xmlns="http://www.w3.org/2000/svg" xmlns:xlink="http://www.w3.org/1999/xlink" viewBox="0 0 8.5 8.5"><defs><style>.cls-1{fill:#fff;}.cls-2{fill:#284a9a;}</style><symbol id="Faro2022" viewBox="0 0 8.5 8.5"><g><g id="cascata"><circle class="cls-2" cx="4.25" cy="4.25" r="4.25"/></g><path class="cls-1" d="M2.49,7.25v-.43h.66c.1-1.42,.19-2.84,.29-4.27-.08,0-.16,0-.24,0-.01,0-.03,0-.04,0-.02,0-.04-.03-.04-.05,0-.11,0-.23,0-.34,0,0,0,0,0,0h.11v.05h.27v-.76h-.16c0-.05,0-.1,0-.15,0,0,.01-.02,.02-.02,.24-.11,.48-.22,.72-.33,.05-.02,.09-.04,.14-.06,.03-.01,.05-.01,.07,0,.18,.08,.35,.17,.53,.25,.1,.05,.2,.09,.3,.14,.03,.01,.04,.03,.04,.06,0,.04,0,.08,0,.12h-.16v.76h.26s0-.03,0-.05h.11c0,.11,0,.23,0,.34,0,.03-.02,.05-.05,.06-.06,0-.12,0-.18,0-.03,0-.05,0-.08,0,.1,1.42,.19,2.84,.29,4.26h.67v.43H2.49Zm1.9-1.51v1.08h.64v-1.08h-.64Z"/></g></symbol></defs><g id="SIMBOLI"><use width="8.5" height="8.5" xlink:href="#Faro2022"/></g></svg>