<?xml version="1.0" encoding="UTF-8"?><svg id="Livello_2" xmlns="http://www.w3.org/2000/svg" xmlns:xlink="http://www.w3.org/1999/xlink" viewBox="0 0 8.5 8.5"><defs><style>.cls-1{fill:#2fac66;}.cls-2{fill:#fff;fill-rule:evenodd;}</style><symbol id="Fauna2022" viewBox="0 0 8.5 8.5"><g><g id="fauna"><circle class="cls-1" cx="4.25" cy="4.25" r="4.25"/></g><path class="cls-2" d="M5.65,2.02h.58s.06,.02,.09,.05c.03,.03,.04,.05,.04,.09s-.02,.07-.04,.1c-.03,.03-.06,.04-.09,.04h-.58s-.07,.02-.1,.04c-.03,.04-.04,.06-.04,.1,0,.02,0,.04,.02,.07,.02,.04,.05,.09,.08,.13h.34s.04,0,.06,.02l.77,.41c.08,.04,.12,.11,.12,.19,0,.07-.02,.13-.07,.17-.04,.04-.09,.06-.16,.06h-.5l-.67,1.65-.44,.45v1.57c0,.09-.03,.16-.08,.2-.06,.05-.12,.09-.21,.09-.08,0-.14-.04-.2-.09-.06-.04-.09-.12-.09-.2v-1.69h-1.17l-.27,.4,.65,1.12s.04,.07,.04,.13c0,.11-.05,.2-.16,.26-.03,.03-.07,.04-.13,.04-.12,0-.2-.04-.26-.15l-.66-1.13v-.5l-.33,.44v1.07c0,.09-.03,.15-.09,.21-.05,.05-.13,.08-.2,.08s-.14-.03-.21-.08c-.05-.05-.08-.12-.08-.21v-1.13l.27-.43v-.51l-.21,.32s0,.02-.03,.02-.03,0-.03-.03v-1.14c0-.12,.04-.21,.13-.29,.09-.08,.19-.12,.29-.12h2.86l.45-.7-.37-.37s-.02-.02-.02-.04c0-.04,.02-.05,.04-.05h.28c-.07-.15-.11-.31-.11-.47,0-.14,.03-.28,.09-.42,.05-.13,.13-.24,.23-.34,.1-.1,.2-.17,.34-.23,.13-.05,.27-.09,.42-.09,.04,0,.07,.02,.1,.04,.03,.03,.04,.05,.04,.09,0,.04-.02,.08-.04,.11-.03,.03-.06,.04-.1,.04-.2,0-.38,.06-.53,.2-.15,.13-.24,.3-.27,.5,.07-.03,.13-.05,.2-.05"/></g></symbol></defs><g id="SIMBOLI"><use width="8.5" height="8.5" xlink:href="#Fauna2022"/></g></svg>