<?xml version="1.0" encoding="UTF-8"?><svg id="Livello_2" xmlns="http://www.w3.org/2000/svg" xmlns:xlink="http://www.w3.org/1999/xlink" viewBox="0 0 8.5 8.5"><defs><style>.cls-1{fill:#fff;}.cls-2{fill:#008bce;}</style><symbol id="Fontanella2023" viewBox="0 0 8.5 8.5"><g><circle class="cls-2" cx="4.25" cy="4.25" r="4.25"/><g><path class="cls-1" d="M4.25,7.23c-1.23,0-2.22-1-2.22-2.22,0-1.15,1.83-3.27,2.03-3.51l.19-.22,.19,.22c.21,.24,2.03,2.36,2.03,3.51,0,1.23-1,2.22-2.22,2.22Zm0-5.18c-.61,.74-1.72,2.22-1.72,2.95,0,.95,.77,1.72,1.72,1.72s1.72-.77,1.72-1.72c0-.73-1.11-2.21-1.72-2.95Z"/><path class="cls-1" d="M4.17,6.33v-.51c.55,0,1-.45,1-1h.51c0,.83-.68,1.51-1.51,1.51Z"/></g></g></symbol></defs><g id="SIMBOLI"><g id="fontanella22"><use width="8.5" height="8.5" xlink:href="#Fontanella2023"/></g></g></svg>