<?xml version="1.0" encoding="UTF-8"?><svg id="Livello_2" xmlns="http://www.w3.org/2000/svg" xmlns:xlink="http://www.w3.org/1999/xlink" viewBox="0 0 8.5 8.5"><defs><style>.cls-1,.cls-2{fill-rule:evenodd;}.cls-1,.cls-3{fill:#683c11;}.cls-2{fill:#fff;}</style><symbol id="Forte2022" viewBox="0 0 8.5 8.5"><g><circle class="cls-3" cx="4.25" cy="4.25" r="4.25"/><g><path class="cls-2" d="M.88,5.05c0-.47,.09-.89,.26-1.3,.17-.4,.42-.76,.72-1.07,.3-.3,.66-.54,1.07-.71,.41-.17,.85-.27,1.32-.27s.9,.1,1.31,.27c.41,.17,.77,.41,1.07,.71,.31,.31,.54,.66,.71,1.07,.18,.41,.27,.84,.27,1.3v.63H.88v-.63Z"/><path class="cls-1" d="M3.34,6.43h0s0,0,0,0h0ZM.42,2.14h0s0,0,0,0H.42Zm5.86,0h0s0,0,0,0h0ZM3.34,.94h0s0,0,0,0h0Zm0,2.5c.15,0,.28,.05,.39,.16,.11,.11,.16,.24,.16,.39s-.05,.28-.16,.39c-.11,.11-.24,.16-.39,.16s-.28-.05-.39-.16c-.1-.11-.16-.24-.16-.39s.05-.28,.16-.39c.1-.1,.24-.16,.39-.16"/><path class="cls-1" d="M5.13,6.43h0s0,0,0,0h0ZM2.21,2.14h0s0,0,0,0h0Zm5.86,0h0s0,0,0,0h0ZM5.13,.94h0s0,0,0,0h0Zm0,2.5c.15,0,.28,.05,.39,.16,.1,.11,.16,.24,.16,.39s-.05,.28-.16,.39c-.11,.11-.24,.16-.39,.16s-.28-.05-.38-.16c-.11-.11-.16-.24-.16-.39s.05-.28,.16-.39c.1-.1,.23-.16,.38-.16"/></g></g></symbol></defs><g id="SIMBOLI"><use width="8.5" height="8.5" xlink:href="#Forte2022"/></g></svg>