<?xml version="1.0" encoding="UTF-8"?><svg id="Livello_2" xmlns="http://www.w3.org/2000/svg" viewBox="0 0 8.5 8.5"><defs><style>.cls-1{fill:#fff;fill-rule:evenodd;}.cls-2{fill:#254a96;}</style></defs><g id="SIMBOLI"><g id="funivia"><circle class="cls-2" cx="4.25" cy="4.25" r="4.25"/><path class="cls-1" d="M4.51,1.98c-.1,0-.19-.03-.26-.1-.07-.08-.11-.15-.11-.25,0-.1,.04-.2,.11-.26,.08-.07,.16-.1,.26-.1,.09,0,.18,.03,.24,.1,.07,.07,.1,.16,.1,.26,0,.09-.03,.17-.1,.25-.06,.07-.14,.1-.24,.1Zm1.34,2.64s0-.06-.03-.09c-.03-.02-.05-.02-.09-.02h-.76c-.08,0-.12,.03-.12,.11v.74s0,.07,.03,.09c.03,.03,.05,.03,.09,.03h.76s.06,0,.09-.03c.02-.03,.03-.06,.03-.09v-.74Zm-1.2,0s0-.06-.03-.09c-.02-.02-.05-.02-.08-.02h-.76c-.08,0-.12,.03-.12,.11v.74s0,.07,.03,.09c.03,.03,.06,.03,.08,.03h.76s.06,0,.08-.03c.03-.03,.03-.06,.03-.09v-.74Zm-1.2,0s-.02-.06-.04-.08c-.03-.03-.06-.03-.09-.03h-.74c-.08,0-.13,.03-.13,.11v.75s.02,.06,.03,.08c.02,.03,.05,.03,.09,.03h.74s.06,0,.09-.03c.03-.02,.04-.05,.04-.08v-.75Zm2.38-.54c.07,0,.13,.02,.17,.07,.04,.04,.07,.1,.07,.17v2.34c0,.06-.03,.11-.07,.15-.04,.05-.1,.08-.17,.08H2.47c-.07,0-.13-.03-.17-.08-.04-.04-.07-.09-.07-.15v-2.34c0-.07,.03-.13,.07-.17,.04-.05,.1-.07,.17-.07h1.58v-1.17l.22-.09v1.27h1.56Zm-2.18-1.8c-.1,0-.19-.04-.25-.11-.07-.07-.1-.15-.1-.24,0-.1,.03-.18,.1-.25,.06-.07,.14-.1,.25-.1s.19,.03,.26,.1c.07,.07,.1,.14,.1,.25,0,.08-.03,.17-.1,.24-.07,.07-.15,.11-.26,.11h0ZM.8,3.86v-.22L7.3,1.21v.2L.8,3.86Z"/></g></g></svg>