<?xml version="1.0" encoding="UTF-8"?><svg id="Livello_2" xmlns="http://www.w3.org/2000/svg" xmlns:xlink="http://www.w3.org/1999/xlink" viewBox="0 0 8.5 8.5"><defs><style>.cls-1{fill:#fff;fill-rule:evenodd;}.cls-2{fill:#e6007e;}</style><symbol id="Golf2022" viewBox="0 0 8.5 8.5"><g><circle class="cls-2" cx="4.25" cy="4.25" r="4.25"/><path class="cls-1" d="M6.22,3.06c0,.06,0,.13-.04,.18-.04,.04-.1,.08-.16,.08l-1.19,.23,.44,1.87s.02,.04,.02,.08c0,.04,0,.06,0,.08l-.19,1.59c0,.08-.05,.14-.11,.19-.05,.04-.13,.06-.21,.05-.07-.02-.13-.05-.18-.12-.05-.06-.07-.13-.06-.21l.2-1.55-.06-.29s-.02,.03-.06,.09c-.04,.06-.09,.14-.15,.24-.06,.1-.14,.21-.22,.34-.09,.13-.17,.25-.26,.37l-.67,1.04c-.04,.07-.11,.11-.18,.13-.08,0-.15,0-.2-.03-.06-.04-.12-.09-.13-.17-.02-.08,0-.14,.04-.21l1.29-1.97-.41-1.58c-.02-.06,0-.12,.04-.18,.04-.05,.1-.09,.17-.1l1.83-.34L3.5,1.39l-.15,.22s-.05,.05-.1,.06c-.04,0-.08,0-.11-.03-.05-.02-.08-.05-.09-.11,0-.04,0-.08,.03-.12l.28-.37,2.75,1.84,.04,.05s.06,.07,.07,.12m-2.38-.94c.13,0,.23,.05,.32,.13,.1,.1,.13,.2,.13,.34,0,.14-.04,.25-.13,.35-.09,.09-.2,.13-.32,.13-.14,0-.25-.04-.35-.13-.09-.1-.13-.21-.13-.35,0-.13,.04-.24,.13-.34,.1-.09,.21-.13,.35-.13"/></g></symbol></defs><g id="SIMBOLI"><use width="8.5" height="8.5" xlink:href="#Golf2022"/></g></svg>