<?xml version="1.0" encoding="UTF-8"?><svg id="Livello_2" xmlns="http://www.w3.org/2000/svg" xmlns:xlink="http://www.w3.org/1999/xlink" viewBox="0 0 6.94 3.64"><defs><style>.cls-1{fill:#1d1d1b;fill-rule:evenodd;}</style><symbol id="Deleted_Symbol" viewBox="0 0 4.85 2.55"><path class="cls-1" d="M4.85,2.42c0,.09-.05,.13-.12,.13h-.94c-1.54,0-.81,0-2.73,0H.12c-.07,0-.12-.04-.12-.13,0-.08,.05-.12,.12-.12h.94c0-.27,.12-.52,.31-.76L.79,.95c-.07-.07-.11-.13-.11-.16,0-.08,.04-.13,.12-.13,.05,0,.1,.04,.15,.1l.58,.6c.25-.2,.51-.31,.77-.32V.11c0-.07,.04-.11,.13-.11,.08,0,.12,.04,.12,.11v.93c.22,.02,.43,.09,.63,.22,.08,.04,.12,.07,.13,.09,.02-.02,.05-.05,.12-.11l.47-.47c.07-.07,.13-.12,.16-.12,.08,0,.12,.04,.12,.13,0,.04-.03,.08-.09,.14l-.6,.6c0-.14,.08-.02,.22,.38,.05,.13,.09,.27,.09,.39h.94c.07,0,.12,.04,.12,.12Z"/></symbol><symbol id="Grotta2022" viewBox="0 0 9.72 5.1"><use width="4.85" height="2.55" transform="scale(2)" xlink:href="#Deleted_Symbol"/></symbol></defs><g id="SIMBOLI"><use width="9.72" height="5.1" transform="scale(.71)" xlink:href="#Grotta2022"/></g></svg>