<?xml version="1.0" encoding="UTF-8"?><svg id="Livello_2" xmlns="http://www.w3.org/2000/svg" xmlns:xlink="http://www.w3.org/1999/xlink" viewBox="0 0 8.5 8.5"><defs><style>.cls-1{fill:#fff;}.cls-2{fill:#e6007e;}</style><symbol id="Ippica2022" viewBox="0 0 8.5 8.5"><g><circle class="cls-2" cx="4.25" cy="4.25" r="4.25"/><g><path class="cls-1" d="M5.07,5.12c-.27,.06-.51,.09-.76,.08-.25-.01-.49-.06-.73-.15-.02,.05-.04,.09-.06,.13-.14,.3-.34,.52-.64,.67-.1,.05-.16,.13-.18,.23-.04,.16-.06,.33-.09,.5,0,.02,0,.04,.02,.06,.1,.14,.12,.3,.08,.46-.01,.06-.05,.09-.11,.09-.13,0-.26,0-.39,0-.07,0-.12-.06-.11-.13,.01-.07-.01-.12-.06-.16-.11-.09-.13-.2-.1-.33,.05-.19,.07-.39,.1-.58,.04-.3,.14-.57,.38-.76-.34-.51-.52-1.03-.19-1.62-.08-.05-.21-.03-.3,.05-.07,.06-.11,.14-.11,.23,0,.21,0,.43,0,.64,0,.25,0,.26-.16,.45,.12,0,.24,0,.35-.07,.06-.04,.13-.03,.16,.03,.04,.06,.02,.12-.04,.16-.29,.2-.71,.13-.91-.15-.04-.06-.04-.12,0-.16,.05-.04,.1-.05,.15-.01,.11,.07,.22,.02,.22-.12,0-.22,0-.45,0-.67,0-.12,.02-.23,.08-.33,.15-.29,.5-.36,.71-.21,.01,0,.05,0,.06,0,.17-.1,.36-.13,.55-.13,.53,0,1.07,0,1.6,0,.26,0,.48-.1,.64-.31,.09-.12,.15-.25,.23-.38,.1-.17,.2-.35,.31-.53,.02-.03,.05-.06,.07-.09,.1-.1,.18-.2,.21-.35,.03-.15,.16-.25,.29-.33,.06-.04,.12-.01,.15,.05,.04,.11,.07,.22,.1,.33,0,.03,.02,.06,.04,.08,.04,.05,.1,.1,.13,.16,.11,.22,.27,.41,.43,.6,.02,.03,.05,.06,.06,.09,.08,.14,.05,.28-.08,.39-.1,.09-.26,.1-.36,0-.12-.12-.27-.1-.41-.08-.03,0-.06,.09-.09,.14,0,.01,0,.04,0,.05,0,.42,0,.85,0,1.27,0,.24-.06,.45-.2,.64-.09,.13-.2,.24-.3,.36-.04,.05-.07,.09-.08,.15-.03,.21-.07,.41-.09,.62-.02,.24,.04,.47,.19,.66,.04,.06,.08,.12,.12,.18,.05,.08,0,.18-.09,.18-.16,0-.32,0-.49,0-.04,0-.08-.03-.11-.06-.07-.1-.14-.2-.2-.3-.02-.03-.03-.08-.03-.12,0-.37,.01-.74,.02-1.11,0-.15,0-.3,0-.47Z"/><path class="cls-1" d="M5.95,2.26s-.05,.06-.07,.1c-.1,.17-.19,.34-.28,.51-.13,.25-.31,.45-.57,.58-.02,0-.04,.04-.04,.07,0,.11,0,.21-.01,.32-.06,.34-.27,.55-.6,.63-.03,0-.05,.02-.05,.06,0,.14,0,.28,0,.42,0,.04,.01,.05,.05,.05,.22,0,.44-.03,.66-.09-.01-.1-.02-.2-.04-.3-.01-.11,.01-.16,.09-.17,.08,0,.11,.04,.13,.15,.05,.38,.07,.76,.07,1.14,0,.31-.02,.62-.02,.94,0,.03,0,.07,.02,.09,.04,.07,.08,.13,.13,.2,.01,.01,.03,.03,.05,.03,.06,0,.13,0,.2,0-.01-.02-.01-.03-.02-.04-.17-.23-.24-.5-.21-.78,.02-.25,.07-.51,.12-.76,0-.03,.03-.05,.05-.07,.09-.1,.19-.2,.28-.3,.14-.17,.23-.37,.23-.6,0-.4,0-.8,0-1.19,0-.11-.02-.23,.06-.33-.07-.04-.13-.06-.19-.1-.06-.03-.07-.09-.05-.14,.03-.05,.08-.08,.14-.05,.03,.01,.07,.03,.1,.05,.04,.02,.08,.04,.12,.06-.12-.15-.23-.3-.34-.44Z"/><path class="cls-1" d="M3.44,3.55c-.21,0-.41-.02-.61,0-.23,.02-.4,.15-.48,.37-.06,.15-.06,.31-.03,.47,.05,.29,.18,.54,.36,.77,.06,.07,.05,.14-.02,.18-.21,.13-.32,.33-.36,.57-.04,.25-.09,.49-.14,.74,0,.02,0,.04,.02,.05,.08,.07,.15,.14,.15,.25h.17c0-.1-.01-.15-.07-.24-.02-.03-.05-.07-.04-.1,.03-.2,.05-.4,.09-.6,.04-.16,.14-.3,.29-.38,.28-.13,.46-.35,.57-.63,.05-.13,.1-.26,.14-.39,.03-.07,.08-.1,.15-.08,.06,.02,.08,.08,.06,.15-.01,.04-.03,.09-.05,.14,.15,.04,.29,.08,.44,.12v-.49c-.49-.12-.69-.45-.66-.93Z"/><path class="cls-1" d="M4.76,3.54h-1.1c-.03,.25,.02,.47,.24,.62,.19,.13,.4,.13,.6,.02,.24-.14,.29-.38,.26-.64Z"/><path class="cls-1" d="M6.36,1.59c-.07,.08-.11,.14-.11,.22,0,.09-.03,.15-.1,.21-.02,.01-.03,.05-.02,.07,.11,.23,.28,.42,.48,.59,.07-.09,.13-.18,.18-.26-.07-.11-.13-.22-.19-.32-.04-.06-.1-.12-.15-.17-.05-.04-.07-.07-.07-.13,0-.06,0-.12-.02-.21Z"/><path class="cls-1" d="M6.83,2.76s.07,.05,.1,.08c.03,.03,.07,.05,.11,0,.04-.04,.06-.08,.01-.13-.03-.04-.07-.08-.1-.13-.04,.06-.08,.11-.12,.17Z"/><path class="cls-1" d="M5.95,2.26c.11,.15,.22,.29,.34,.44-.05-.02-.09-.04-.12-.06-.03-.02-.07-.03-.1-.05-.06-.02-.11,0-.14,.05-.03,.05-.01,.11,.05,.14,.06,.03,.12,.06,.19,.1-.08,.1-.06,.22-.06,.33,0,.4,0,.8,0,1.19,0,.23-.08,.42-.23,.6-.09,.11-.19,.2-.28,.3-.02,.02-.04,.05-.05,.07-.04,.25-.09,.5-.12,.76-.03,.28,.04,.55,.21,.78,0,0,.01,.02,.02,.04-.07,0-.14,0-.2,0-.02,0-.04-.02-.05-.03-.05-.06-.09-.13-.13-.2-.02-.03-.02-.06-.02-.09,0-.31,.02-.62,.02-.94,0-.38-.01-.76-.07-1.14-.02-.11-.06-.16-.13-.15-.08,0-.11,.06-.09,.17,.01,.1,.02,.2,.04,.3-.22,.06-.44,.09-.66,.09-.04,0-.05-.01-.05-.05,0-.14,0-.28,0-.42,0-.04,.02-.05,.05-.06,.33-.08,.54-.29,.6-.63,.02-.1,0-.21,.01-.32,0-.02,.02-.06,.04-.07,.26-.12,.44-.33,.57-.58,.09-.17,.19-.34,.28-.51,.02-.04,.05-.07,.07-.1Z"/><path class="cls-1" d="M3.44,3.55c-.03,.48,.18,.81,.66,.93v.49c-.15-.04-.29-.08-.44-.12,.02-.05,.03-.1,.05-.14,.02-.07,0-.13-.06-.15-.06-.02-.12,0-.15,.08-.05,.13-.09,.26-.14,.39-.11,.28-.3,.5-.57,.63-.16,.08-.25,.21-.29,.38-.05,.2-.07,.4-.09,.6,0,.03,.02,.07,.04,.1,.06,.09,.08,.14,.07,.24h-.17c0-.11-.08-.18-.15-.25-.01-.01-.02-.04-.02-.05,.04-.25,.09-.49,.14-.74,.04-.24,.15-.44,.36-.57,.07-.05,.08-.11,.02-.18-.18-.23-.31-.48-.36-.77-.03-.16-.03-.32,.03-.47,.08-.23,.25-.35,.48-.37,.2-.02,.4,0,.61,0Z"/><path class="cls-1" d="M4.76,3.54c.03,.26-.02,.49-.26,.64-.2,.12-.4,.11-.6-.02-.22-.15-.27-.37-.24-.62h1.1Z"/><path class="cls-1" d="M6.36,1.59c0,.08,.02,.14,.02,.21,0,.06,.03,.09,.07,.13,.06,.05,.11,.11,.15,.17,.07,.1,.13,.21,.19,.32-.06,.08-.12,.17-.18,.26-.2-.17-.37-.36-.48-.59,0-.02,0-.06,.02-.07,.07-.05,.1-.11,.1-.21,0-.08,.04-.15,.11-.22Z"/><path class="cls-1" d="M6.83,2.76c.04-.06,.08-.11,.12-.17,.04,.05,.07,.09,.1,.13,.04,.05,.03,.09-.01,.13-.04,.04-.07,.02-.11,0-.03-.02-.07-.05-.1-.08Z"/></g></g></symbol></defs><g id="SIMBOLI"><use width="8.5" height="8.5" xlink:href="#Ippica2022"/></g></svg>