<?xml version="1.0" encoding="UTF-8"?><svg id="Livello_2" xmlns="http://www.w3.org/2000/svg" xmlns:xlink="http://www.w3.org/1999/xlink" viewBox="0 0 4.05 7.24"><defs><style>.cls-1{fill:#fff;}.cls-2{fill:#1d1d1b;}</style><symbol id="Marginetta2022" viewBox="0 0 5.67 10.14"><g><g><rect class="cls-2" x="2.35" y="0" width=".97" height="8.51"/><polygon class="cls-2" points="0 3.04 0 2.08 5.67 2.08 5.67 3.04 0 3.04"/></g><g><circle class="cls-1" cx="2.83" cy="7.87" r="1.89"/><path class="cls-2" d="M2.83,6.37c.83,0,1.5,.67,1.5,1.5s-.67,1.5-1.5,1.5-1.5-.67-1.5-1.5,.67-1.5,1.5-1.5m0-.77c-1.25,0-2.27,1.02-2.27,2.27s1.02,2.27,2.27,2.27,2.27-1.02,2.27-2.27-1.02-2.27-2.27-2.27h0Z"/></g></g></symbol></defs><g id="SIMBOLI"><use width="5.67" height="10.14" transform="scale(.71)" xlink:href="#Marginetta2022"/></g></svg>