<?xml version="1.0" encoding="UTF-8"?><svg id="Livello_2" xmlns="http://www.w3.org/2000/svg" xmlns:xlink="http://www.w3.org/1999/xlink" viewBox="0 0 4.96 4.98"><defs><style>.cls-1{stroke:#1d1d1b;stroke-linecap:round;stroke-linejoin:round;stroke-width:.43px;}</style><symbol id="miniera22" viewBox="0 0 5.53 5.54"><path class="cls-1" d="M3.83,.21c.08,.08,.15,.16,.23,.23,.32,.33,.65,.65,.97,.97,.02,.02,.03,.04,.04,.06,.08,.24,.16,.48,.24,.73,0,.02,0,.04,0,.05-.08,.08-.16,.16-.24,.25-.24-.24-.47-.47-.7-.7-.42,.42-.83,.83-1.24,1.24,.64,.64,1.29,1.29,1.93,1.93-.12,.12-.24,.24-.36,.36-.64-.64-1.29-1.29-1.94-1.94-.65,.65-1.29,1.29-1.94,1.94-.12-.12-.24-.24-.36-.36,.64-.64,1.29-1.29,1.93-1.93-.41-.41-.82-.82-1.24-1.23-.23,.23-.46,.46-.7,.7-.07-.07-.14-.15-.22-.22-.04-.04-.05-.07-.03-.12,.08-.23,.15-.46,.23-.68,0-.03,.02-.05,.04-.07,.39-.39,.78-.78,1.17-1.17,0,0,.02-.02,.03-.03,0,0,0,0,0,0,.18,.17,.35,.35,.54,.53-.24,.24-.48,.47-.7,.7,.41,.41,.82,.82,1.22,1.22,.41-.41,.82-.82,1.23-1.23-.23-.23-.46-.46-.7-.7,.18-.18,.36-.35,.53-.53,0,0,0,0,0,0Z"/></symbol></defs><g id="SIMBOLI"><g id="LEGENDA"><use width="5.53" height="5.54" transform="translate(.02 .02) scale(.89)" xlink:href="#miniera22"/></g></g></svg>