<?xml version="1.0" encoding="UTF-8"?><svg id="Livello_2" xmlns="http://www.w3.org/2000/svg" xmlns:xlink="http://www.w3.org/1999/xlink" viewBox="0 0 8.5 8.5"><defs><style>.cls-1{fill:#fff;}.cls-2{fill:#683c11;}</style><symbol id="Monumento2022" viewBox="0 0 8.5 8.5"><g><circle class="cls-2" cx="4.25" cy="4.25" r="4.25"/><g><path class="cls-1" d="M3.49,5.27c0-.13,0-.26,0-.38,.01-.38,.03-.75,.05-1.13,.03-.67,.06-1.34,.09-2.02,0-.11,0-.23,.01-.34,0-.02,0-.05,.02-.06,.19-.15,.39-.29,.58-.44,.15,.11,.29,.23,.44,.33,.12,.08,.17,.17,.18,.33,0,.43,.03,.86,.05,1.29,.03,.69,.06,1.38,.09,2.08,0,.11,0,.23,0,.34h-1.52Z"/><path class="cls-1" d="M2.97,6.87v-1.41h2.56v1.41H2.97Z"/><path class="cls-1" d="M2.55,7.6v-.54s.04,0,.06,0c1.09,0,2.18,0,3.27,0,.05,0,.07,.01,.07,.07,0,.14,0,.28,0,.42,0,.02,0,.03,0,.05H2.55Z"/></g></g></symbol></defs><g id="SIMBOLI"><use width="8.5" height="8.5" xlink:href="#Monumento2022"/></g></svg>