<?xml version="1.0" encoding="UTF-8"?><svg id="Livello_2" xmlns="http://www.w3.org/2000/svg" xmlns:xlink="http://www.w3.org/1999/xlink" viewBox="0 0 8.5 8.5"><defs><style>.cls-1,.cls-2{fill:#fff;}.cls-3{fill:#683c11;}.cls-2{stroke:#fff;stroke-linecap:round;stroke-linejoin:round;stroke-width:.09px;}</style><symbol id="Nuraghe2022" viewBox="0 0 8.5 8.5"><g><g id="grotta"><circle class="cls-3" cx="4.25" cy="4.25" r="4.25"/></g><g><path class="cls-2" d="M5.04,5.48v-.82h1.21v.82h-1.21Z"/><path class="cls-2" d="M3.58,4.66v.82h-1.25v-.82h1.25Z"/><path class="cls-2" d="M5.74,6.52v-.78h1.44c.03,.26,.06,.52,.1,.78h-1.53Z"/><path class="cls-2" d="M1.32,6.52c.03-.27,.06-.52,.09-.78h1.23v.78H1.32Z"/><path class="cls-2" d="M5.46,4.44H3.13c.05-.15,.1-.3,.16-.43,.02-.04,.08-.07,.12-.07,.59,0,1.18,0,1.77,0,.05,0,.12,.04,.13,.08,.06,.13,.1,.27,.15,.43Z"/><path class="cls-1" d="M3.47,2.03s0-.02,0-.03q.09-.44,.45-.44c.33,0,.66,0,1,0,.13,0,.21,.04,.24,.2,.01,.08,.04,.17,.07,.26h-1.75Z"/><path class="cls-2" d="M2.57,3.74v-.67h1.13v.67h-1.13Z"/><path class="cls-2" d="M5.98,3.74h-1.11v-.67h1.07c.01,.21,.03,.43,.05,.67Z"/><path class="cls-2" d="M1.61,4.45c.12-.18,.22-.33,.32-.47,.02-.03,.08-.05,.11-.05,.34,0,.68,0,1.05,0-.05,.15-.09,.29-.14,.43-.02,.04-.07,.08-.11,.09-.4,0-.79,0-1.23,0Z"/><path class="cls-2" d="M6.99,4.45c-.44,0-.84,0-1.23,0-.04,0-.09-.03-.1-.06-.05-.14-.1-.29-.15-.45,.37,0,.71,0,1.05,0,.04,0,.09,.02,.11,.05,.1,.14,.2,.29,.32,.46Z"/><path class="cls-2" d="M6.43,4.66h.61c.03,.27,.07,.54,.1,.82h-.71v-.82Z"/><path class="cls-2" d="M6.3,2.04c-.28,0-.56,0-.85,0-.03,0-.07-.04-.09-.08-.04-.1-.06-.21-.1-.35,.24,0,.48-.05,.7,.02,.13,.04,.24,.24,.35,.37,0,.01,0,.03-.01,.04Z"/><path class="cls-2" d="M2.27,2.04c.14-.16,.25-.29,.36-.41,.02-.02,.04-.03,.07-.03,.24,0,.48,0,.74,0-.04,.14-.07,.27-.11,.38,0,.03-.05,.06-.08,.06-.31,0-.62,0-.98,0Z"/><path class="cls-2" d="M1.46,5.48c.03-.28,.07-.54,.1-.82h.6v.82h-.71Z"/><path class="cls-2" d="M2.88,5.73h.63v.78h-.63v-.78Z"/><path class="cls-2" d="M5.55,6.52h-.45v-.78h.45v.78Z"/><path class="cls-2" d="M3.91,3.07h.77v.67h-.77v-.67Z"/><path class="cls-2" d="M6.15,3.07h.36c.02,.22,.04,.44,.06,.67h-.37c-.01-.22-.03-.43-.05-.67Z"/><path class="cls-2" d="M2.39,3.74h-.36c.01-.22,.03-.44,.04-.67h.31v.67Z"/><path class="cls-2" d="M2.68,2.92v-.72h.58v.72h-.58Z"/><path class="cls-2" d="M5.94,2.92h-.5v-.72h.48c0,.23,.01,.47,.02,.72Z"/><path class="cls-2" d="M3.47,2.2h1.75v.72h-1.75v-.72Z"/><path class="cls-2" d="M6.08,2.2h.3c.02,.24,.03,.47,.05,.72h-.31c-.01-.23-.02-.46-.04-.72Z"/><path class="cls-2" d="M2.5,2.92h-.34c.01-.24,.03-.47,.04-.72h.3v.72Z"/></g></g></symbol></defs><g id="SIMBOLI"><use width="8.5" height="8.5" xlink:href="#Nuraghe2022"/></g></svg>