<?xml version="1.0" encoding="UTF-8"?><svg id="Livello_2" xmlns="http://www.w3.org/2000/svg" xmlns:xlink="http://www.w3.org/1999/xlink" viewBox="0 0 8.5 8.5"><defs><style>.cls-1{fill:#fff;}.cls-2{fill:#82368c;}</style><symbol id="oleificio2022" viewBox="0 0 8.5 8.5"><g><g id="cantina"><circle class="cls-2" cx="4.25" cy="4.25" r="4.25"/></g><g><path class="cls-1" d="M4.07,4.44c-.02-.1-.04-.2-.06-.3-.2,.03-.34,.16-.43,.34,.01,0,.02,.02,.03,.03,.01,0,.02,.01,.04,.02-.34,.32-.5,.71-.52,1.17-.02,.45,.11,.86,.4,1.2-.39,.3-.98,.3-1.33-.14-.18-.23-.26-.49-.25-.77,0-.52,.2-.97,.61-1.3,.26-.21,.56-.29,.87-.24,.08-.1,.15-.21,.24-.28,.08-.07,.19-.1,.3-.14,.04-.02,.06-.02,.08-.07,.03-.08,.07-.16,.1-.24-.64-.28-1.07-.77-1.32-1.42-.09-.23-.1-.47-.06-.73,.83,.45,1.22,1.18,1.45,2.04,.11-.11,.21-.22,.31-.33-.17-.18-.22-.43-.23-.68-.03-.64,.1-1.23,.49-1.74,.02-.03,.04-.05,.07-.08,.1,.18,.15,.37,.18,.56,.08,.53-.05,1.03-.23,1.52-.04,.1-.07,.2-.11,.3,0,0,0,.01,0,.03,.04-.03,.08-.05,.12-.08,.16-.1,.31-.2,.47-.29,.03-.02,.08,0,.13,.02,0,.01,0,.02,0,.03-.04,.03-.08,.06-.12,.08-.22,.15-.45,.29-.67,.45-.17,.12-.31,.27-.41,.45-.09,.16-.12,.33-.05,.51,.02,.04,.04,.06,.08,.06,.36-.03,.62,.13,.84,.4,.44,.56,.41,1.49-.06,2-.42,.46-1.05,.44-1.44-.05-.27-.35-.37-.74-.32-1.18,.02-.14,.05-.28,.1-.41,.13-.34,.34-.6,.69-.73Z"/><path class="cls-1" d="M7.5,3.84c-.18,.08-.35,.13-.52,.15-.53,.06-1.02-.07-1.51-.24-.24-.08-.48-.17-.72-.26,.13-.13,.29-.2,.47-.25,.44-.11,.87-.05,1.29,.07,.33,.1,.64,.23,.9,.46,.02,.02,.05,.04,.09,.07Z"/></g></g></symbol></defs><g id="SIMBOLI"><use width="8.5" height="8.5" xlink:href="#oleificio2022"/></g></svg>