<?xml version="1.0" encoding="UTF-8"?><svg id="Livello_2" xmlns="http://www.w3.org/2000/svg" xmlns:xlink="http://www.w3.org/1999/xlink" viewBox="0 0 8.7 8.6"><defs><style>.cls-1{fill:#008d36;}</style><symbol id="Panorama2022" viewBox="0 0 8.7 8.6"><g><g><path class="cls-1" d="M.18,4.56c-.08,0-.13-.05-.13-.14-.01-.49,.08-1.01,.28-1.62,.01-.03,.04-.11,.12-.11l.99,.43,2.25,1.01s.09,.06,.1,.08c-.14,.09-.24,.1-.35,.1,0,0-3.02,.22-3.24,.24,0,0-.03,0-.03,0Z"/><path class="cls-1" d="M.45,2.74s.04,0,.06,.02c.45,.21,.91,.41,1.37,.61,.6,.27,1.2,.54,1.8,.81,.02,.01,.06,.01,.07,.05-.14,.03-.29,.03-.43,.04-.43,.04-.87,.07-1.3,.1-.34,.02-.68,.05-1.02,.07-.27,.02-.54,.04-.8,.06,0,0-.02,0-.03,0-.05,0-.08-.02-.08-.09-.02-.55,.1-1.08,.28-1.6,.02-.05,.04-.08,.07-.08m0-.1H.45c-.08,0-.13,.05-.17,.15C.08,3.4-.01,3.92,0,4.42c0,.16,.11,.19,.18,.19,.01,0,.02,0,.04,0,.21-.02,.42-.03,.63-.05h.17s.5-.05,.5-.05l.51-.04h.15c.38-.04,.77-.07,1.15-.1,.04,0,.08,0,.12,0,.1,0,.21-.01,.32-.04,.03,0,.05-.03,.07-.05,.01-.03,.01-.06,0-.08-.03-.07-.09-.09-.12-.1-.61-.27-1.21-.54-1.8-.81l-.47-.21c-.3-.13-.6-.27-.9-.4-.04-.02-.07-.03-.1-.03H.45Z"/></g><g><path class="cls-1" d="M4.95,4.25s-.04-.11-.02-.12l3.26-1.47s.04,0,.06,0c.07,0,.1,.03,.11,.08,.21,.62,.3,1.15,.29,1.65,0,.09-.05,.14-.13,.14,0,0-3.57-.27-3.57-.27Z"/><path class="cls-1" d="M8.26,2.69s.04,.02,.06,.06c.18,.53,.3,1.06,.29,1.63,0,.07-.02,.09-.08,.09,0,0-.02,0-.03,0-.35-.03-.7-.05-1.05-.08-.35-.03-.69-.05-1.04-.08-.26-.02-.52-.04-.79-.06-.22-.02-.44-.03-.66-.05,0,0,0-.02,0-.03,.17-.08,.34-.15,.5-.23,.82-.37,1.64-.74,2.46-1.11,.1-.04,.2-.09,.3-.13,.02,0,.03-.01,.04-.01m0-.1s-.06,0-.09,.02c-.06,.03-.13,.06-.2,.09l-.1,.04-.66,.29-1.81,.81c-.12,.05-.25,.11-.37,.17l-.14,.06s-.06,.06-.06,.11v.03s.05,.07,.1,.08l.22,.02c.15,.01,.29,.02,.44,.03l.39,.03,.39,.03,.52,.04,.52,.04,.35,.03c.23,.02,.47,.03,.7,.05,.01,0,.02,0,.03,0,.06,0,.17-.02,.18-.19,.02-.51-.08-1.03-.29-1.66-.04-.11-.11-.12-.15-.12h0Z"/></g><g><path class="cls-1" d="M4.34,3.77s-.06-.09-.07-.1L3.42,.33c-.02-.08-.03-.12,0-.16,.03-.04,.07-.05,.15-.06,.26-.04,.53-.06,.79-.06s.55,.02,.82,.07c.01,0,.1,.04,.11,.06,.02,.04,.02,.08,0,.12l-.86,3.36s-.02,.07-.04,.07c-.01,0-.04,.04-.05,.04,0,0,0,0,0,0Z"/><path class="cls-1" d="M4.36,.1c.27,0,.54,.02,.81,.07,.08,.01,.09,.04,.07,.12-.27,1.05-.54,2.1-.81,3.16-.02,.1-.05,.19-.07,.29-.04-.02-.04-.05-.04-.08-.28-1.11-.56-2.22-.85-3.33-.03-.13-.03-.14,.1-.16,.26-.04,.52-.06,.78-.06m0-.1c-.26,0-.53,.02-.8,.06-.08,.01-.14,.02-.18,.08-.04,.06-.02,.12,0,.2l.14,.57,.7,2.76s.02,.1,.09,.14c.01,0,.03,.01,.05,.01,.01,0,.03,0,.04,0,.03-.01,.05-.04,.06-.07l.05-.2,.02-.09,.21-.81c.2-.78,.4-1.56,.6-2.34,.01-.05,.02-.11-.01-.16-.04-.05-.09-.07-.14-.08-.27-.05-.55-.07-.83-.07h0Z"/></g><g><path class="cls-1" d="M3.92,3.96s-.07-.03-.08-.04L1.05,1.83s-.08-.08-.08-.1c0-.04,.02-.07,.06-.11,.29-.34,.62-.63,1.03-.89,.05-.03,.25-.14,.25-.14,.02,0,.04,0,.06,0,.09,0,.12,.05,.13,.07l1.47,3.2s-.02,.11-.03,.11h-.02Z"/><path class="cls-1" d="M2.38,.61s.05,.02,.06,.06c.17,.38,.35,.76,.52,1.14,.26,.57,.52,1.14,.79,1.71,.05,.12,.11,.24,.16,.36,0,.01,.01,.03,0,.04,0,0,0,0,0,0-.03,0-.04-.02-.06-.04L1.07,1.79c-.08-.06-.08-.06-.01-.14,.29-.35,.63-.63,1.01-.87,.08-.05,.17-.09,.25-.14,.02-.01,.04-.02,.05-.02m0-.1s-.07,.01-.1,.03c-.04,.02-.07,.04-.11,.06-.05,.03-.1,.05-.15,.08-.41,.26-.75,.56-1.04,.89-.04,.05-.08,.09-.07,.15,0,.06,.05,.09,.1,.13l1.19,.89,1.59,1.19s.06,.06,.12,.06c.03,0,.07-.02,.09-.04,.03-.04,.03-.09,0-.14l-.16-.36-.02-.03-.77-1.67-.12-.26c-.14-.29-.27-.59-.4-.88-.04-.08-.09-.12-.15-.12h0Z"/></g><g><path class="cls-1" d="M4.7,3.88s-.03,0-.04-.02c-.01-.01-.01-.03,0-.05L6.14,.57s.09-.09,.11-.09c.48,.23,.81,.5,1.11,.77,.07,.06,.13,.13,.19,.2l.1,.11s-.01,.15-.02,.16l-2.8,2.1s-.06,.05-.12,.06c0,0,0,0,0,0Z"/><path class="cls-1" d="M6.26,.53s.04,0,.07,.02c.38,.19,.7,.46,1,.74,.1,.09,.19,.21,.28,.31,.05,.05,0,.07-.03,.09-.3,.22-.59,.45-.89,.67-.63,.47-1.27,.95-1.9,1.42-.02,.02-.04,.04-.09,.05,.07-.15,.13-.28,.19-.41,.44-.94,.87-1.88,1.3-2.82,.02-.05,.04-.06,.07-.06m0-.1c-.1,0-.14,.09-.16,.12-.31,.67-.61,1.33-.92,2l-.38,.83-.1,.23-.09,.19s-.01,.07,.01,.1c.02,.03,.05,.04,.08,.04,0,0,0,0,.01,0,.07,0,.11-.04,.14-.06l1.48-1.11,.42-.32,.1-.08,.79-.59s.08-.05,.09-.12c0-.04-.01-.08-.05-.12-.03-.04-.07-.07-.1-.11-.06-.07-.12-.14-.19-.21-.3-.27-.63-.55-1.03-.75-.03-.02-.07-.03-.11-.03h0Z"/></g><g><path class="cls-1" d="M1.14,7.07s-.08-.04-.09-.05c-.39-.47-.65-.94-.81-1.43,0-.01-.02-.12-.01-.14,.02-.04,.06-.05,.12-.06l3.33-.92s.13,0,.13,0c.02,0,0,.06,0,.08,0,.02-.04,.08-.05,.09L1.23,7.03l-.09,.05Z"/><path class="cls-1" d="M3.76,4.51s.02,0,.03,0c-.02,.05-.06,.07-.1,.11-.45,.43-.9,.85-1.35,1.28-.38,.36-.77,.73-1.15,1.09-.02,.02-.04,.03-.05,.03-.01,0-.03,0-.05-.03-.35-.42-.63-.89-.8-1.41-.04-.11-.03-.11,.08-.14,1.11-.31,2.22-.61,3.33-.92,.02,0,.04-.02,.06-.02m0-.1s-.06,0-.08,.02l-1.47,.4-1.87,.52c-.07,.02-.12,.03-.15,.09-.03,.05-.01,.11,0,.18,.16,.5,.43,.97,.82,1.45,.04,.04,.08,.07,.12,.07,.06,0,.1-.04,.12-.06l.69-.65,.46-.44c.45-.43,.9-.85,1.35-1.28l.02-.02s.07-.06,.1-.12c.02-.05,0-.11-.05-.13-.02-.01-.05-.02-.07-.02h0Z"/></g><g><path class="cls-1" d="M7.52,7.21s-.08-.04-.09-.05l-2.53-2.39s-.1-.1-.09-.12l.21-.02,3.29,.9s.1,.05,.1,.07c.02,.04,.01,.08,0,.12-.16,.49-.42,.96-.82,1.45l-.09,.05Z"/><path class="cls-1" d="M4.87,4.63c.14,.04,.28,.08,.42,.11,1,.28,2.01,.55,3.01,.83,.07,.02,.1,.04,.07,.12-.17,.53-.46,1-.81,1.43-.02,.02-.03,.03-.05,.03-.02,0-.04-.02-.06-.03-.34-.33-.68-.65-1.03-.97-.5-.47-1-.95-1.5-1.42-.02-.02-.05-.04-.08-.06,0-.01,.01-.02,.02-.03m0-.1s-.06,.02-.08,.04l.08,.05-.09-.04s-.03,.12,.01,.15l.03,.02s.03,.02,.04,.03c.5,.47,1,.95,1.5,1.42,.34,.32,.68,.65,1.03,.97,.02,.02,.06,.06,.12,.06,.05,0,.09-.02,.12-.07,.4-.49,.67-.97,.83-1.46,.01-.04,.03-.1,0-.16-.03-.06-.09-.08-.14-.09-.79-.22-1.58-.43-2.36-.65l-.65-.18-.24-.07-.18-.05s-.02,0-.03,0h0Z"/></g><g><path class="cls-1" d="M3.53,8.48c-.53-.11-1.04-.31-1.5-.58-.01,0-.08-.08-.08-.09,0-.04,.01-.08,.04-.12l2.05-2.9s0,0,.01,0c.02,0,.04,.02,.06,.03,.02,0,.04,.07,.04,.09l-.4,3.43c-.01,.09-.02,.17-.11,.17,0,0-.1-.01-.1-.02Z"/><path class="cls-1" d="M4.08,4.81s.02,.06,.01,.09c-.13,1.14-.27,2.28-.4,3.41-.01,.1-.02,.13-.06,.13-.02,0-.05,0-.09-.01-.53-.11-1.02-.3-1.49-.58-.07-.04-.07-.07-.03-.14,.63-.89,1.25-1.77,1.88-2.66,.06-.08,.11-.16,.17-.25m0-.1h0s-.06,.02-.08,.04l-.09,.13-.08,.12-.3,.42c-.53,.75-1.05,1.49-1.58,2.24-.03,.04-.06,.1-.05,.16,.01,.06,.06,.1,.1,.12,.47,.27,.98,.47,1.52,.59,.05,.01,.08,.02,.11,.02,.14,0,.15-.12,.16-.21,.13-1.14,.27-2.28,.4-3.41,0-.04,.02-.1-.04-.17-.02-.02-.05-.04-.08-.04h0Z"/></g><g><path class="cls-1" d="M4.82,8.55s-.11-.02-.11-.13l-.23-3.52s.06-.09,.07-.09c0,0,0,0,0,0,.01,0,.07,.06,.08,.07l1.85,2.95s.05,.11,.04,.12c0,.04-.04,.06-.09,.08-.39,.21-.81,.36-1.28,.46-.05,.01-.33,.05-.33,.05Z"/><path class="cls-1" d="M4.53,4.86s.04,.04,.05,.06c.62,.98,1.23,1.96,1.85,2.94,.06,.09,.05,.09-.04,.14-.4,.22-.82,.36-1.26,.45-.09,.02-.19,.03-.29,.04-.01,0-.02,0-.03,0-.05,0-.06-.03-.07-.08-.03-.42-.05-.83-.08-1.25-.04-.62-.08-1.25-.12-1.87,0-.13-.02-.26-.02-.39,0-.01,0-.03,.01-.04m0-.1s-.04,0-.05,.02c-.03,.02-.06,.06-.06,.13l.02,.4,.12,1.87v.22c.04,.34,.06,.69,.08,1.03,.01,.16,.12,.18,.16,.18,.01,0,.03,0,.05,0,.04,0,.08-.01,.12-.02,.06,0,.11-.01,.17-.03,.48-.1,.9-.25,1.29-.46,.06-.03,.11-.06,.12-.12,.02-.06-.01-.11-.05-.16l-1.85-2.94s-.05-.09-.12-.1c0,0-.01,0-.02,0h0Z"/></g></g></symbol></defs><g id="SIMBOLI"><use width="8.7" height="8.6" xlink:href="#Panorama2022"/></g></svg>