<?xml version="1.0" encoding="UTF-8"?><svg id="Livello_2" xmlns="http://www.w3.org/2000/svg" xmlns:xlink="http://www.w3.org/1999/xlink" viewBox="0 0 8.5 8.5"><defs><style>.cls-1{fill:#fff;}.cls-2{fill:#e6007e;}</style><symbol id="Parapendio" viewBox="0 0 8.5 8.5"><g><g id="parapendio"><circle class="cls-2" cx="4.25" cy="4.25" r="4.25"/></g><g><path class="cls-1" d="M4.94,6.1c0-.07-.01-.13-.02-.21,.49-.08,.98-.17,1.49-.25-.14-.19-.27-.38-.41-.56-.51-.65-1.11-1.19-1.81-1.62-.57-.35-1.18-.6-1.84-.73-.05-.01-.1-.02-.15-.03,0,0-.01,0-.02,0,.15,.63,.3,1.27,.45,1.9-.06,.04-.13,.07-.19,.11-.03-.12-.06-.25-.09-.37-.13-.55-.26-1.1-.39-1.65,0-.02,0-.04-.02-.04-.11-.07-.15-.18-.15-.3,0-.35,.1-.65,.4-.86,.1-.08,.23-.1,.35-.1,.42,0,.83,.08,1.24,.21,.85,.27,1.61,.71,2.3,1.28,.36,.3,.69,.63,.97,1.01,.21,.29,.38,.59,.45,.94,.03,.12,.06,.25,0,.37-.04,.08-.09,.17-.15,.23-.14,.16-.31,.29-.51,.36-.07,.03-.15,.03-.22,.02-.08,0-.17,.02-.25,.03-.46,.08-.91,.15-1.37,.23-.01,0-.03,0-.04,0Z"/><path class="cls-1" d="M3.81,6.26c.14,.02,.25-.03,.35-.12,.09-.08,.2-.15,.3-.22,.08-.06,.16-.05,.22,.02,.06,.07,.04,.17-.03,.23-.16,.12-.32,.24-.48,.36-.04,.03-.09,.04-.14,.05-.12,0-.25,0-.38,.01-.02,0-.05,.01-.06,.03-.08,.1-.15,.21-.23,.31-.12,.18-.36,.24-.55,.11-.05-.04-.11-.07-.16-.1-.16-.1-.21-.26-.14-.43,.06-.14,.11-.28,.17-.41,.02-.04,.01-.06,0-.09-.06-.1-.13-.19-.19-.29-.02-.04-.04-.09-.03-.13,.02-.19,.06-.39,.09-.58,.01-.07,.05-.13,.13-.15,.11-.02,.2,.04,.19,.15,0,.12-.03,.23-.05,.35,0,.03,0,.07-.02,.1-.03,.09,0,.15,.05,.23,.09,.15,.2,.27,.36,.34,.11,.05,.22,.12,.32,.18,.06,.04,.13,.06,.21,.05,.03,0,.05,0,.08,0Z"/><path class="cls-1" d="M3.14,5.58c0-.22,.18-.4,.4-.4,.22,0,.4,.18,.4,.4,0,.22-.18,.4-.4,.4-.22,0-.4-.18-.4-.4Z"/></g></g></symbol></defs><g id="SIMBOLI"><use width="8.5" height="8.5" xlink:href="#Parapendio"/></g></svg>