<?xml version="1.0" encoding="UTF-8"?><svg id="Livello_2" xmlns="http://www.w3.org/2000/svg" xmlns:xlink="http://www.w3.org/1999/xlink" viewBox="0 0 8.5 8.5"><defs><style>.cls-1{fill:#fff;}.cls-2{fill:#2fac66;}</style><symbol id="Parco2022" viewBox="0 0 8.5 8.5"><g><circle class="cls-2" cx="4.25" cy="4.25" r="4.25"/><path class="cls-1" d="M6.21,4.79v1.95h-1.45v-1.54h-1.01v1.58h-1.45v-1.99h-.59s.02-.02,.03-.03c.83-.54,1.66-1.07,2.49-1.61,.02-.01,.04-.01,.06,0,.08,.06,.17,.11,.26,.17V1.26s.03,0,.05,0c.19,0,.38,0,.57,0,.1,0,.18,.03,.24,.12,.05,.07,.12,.12,.22,.12,.13,0,.26,0,.4,0,.02,0,.03,0,.05,0v1.02s-.02,0-.04,0c-.14,0-.28,0-.41,0-.1,0-.17-.05-.22-.12-.04-.06-.1-.11-.17-.11-.15,0-.3,0-.45,0v.05c0,.37,0,.74,0,1.1,0,.03,.01,.05,.04,.07,.65,.42,1.29,.83,1.94,1.25,.02,.01,.03,.02,.05,.04h-.58Z"/></g></symbol></defs><g id="SIMBOLI"><use width="8.5" height="8.5" xlink:href="#Parco2022"/></g></svg>