<?xml version="1.0" encoding="UTF-8"?><svg id="Livello_2" xmlns="http://www.w3.org/2000/svg" viewBox="0 0 3.76 3.76"><defs><style>.cls-1{fill:#fff;}.cls-2{fill:#1d1d1b;}</style></defs><g id="SIMBOLI"><polygon class="cls-2" points="3.76 1.88 3.63 1.14 3.22 .6 2.62 .13 1.88 0 1.14 .13 .54 .6 .13 1.14 0 1.88 .13 2.62 .54 3.22 1.14 3.63 1.88 3.76 2.62 3.63 3.22 3.22 3.63 2.62 3.76 1.88"/><polygon class="cls-1" points="3.02 1.88 2.89 1.48 2.69 1.07 2.28 .81 1.88 .74 1.41 .81 1.01 1.07 .81 1.48 .67 1.88 .81 2.35 1.01 2.69 1.41 2.96 1.88 3.02 2.28 2.96 2.69 2.69 2.89 2.35 3.02 1.88"/></g></svg>