<?xml version="1.0" encoding="UTF-8"?><svg id="Livello_2" xmlns="http://www.w3.org/2000/svg" xmlns:xlink="http://www.w3.org/1999/xlink" viewBox="0 0 8.5 8.5"><defs><style>.cls-1{fill:#fff;fill-rule:evenodd;}.cls-2{fill:#e6007e;}</style><symbol id="Ice2022" viewBox="0 0 8.5 8.5"><g><circle class="cls-2" cx="4.25" cy="4.25" r="4.25"/><path class="cls-1" d="M4.03,4.86l-1.54,1.54s-.04,.04-.06,.05c-.07,.04-.15,.05-.23,.02-.08-.04-.14-.08-.19-.16-.07-.14-.04-.27,.08-.37l1.51-1.52s0,.04,.03,.04c0,0,.03,.03,.04,.04l.37,.36Zm-.21-.49s-.09-.11-.12-.19c-.03-.07-.05-.15-.05-.22,0-.08,.02-.16,.05-.22,.03-.05,.07-.12,.12-.17l.76-.75h-1.8c-.07,0-.13-.03-.19-.08-.04-.05-.07-.12-.07-.2s.03-.12,.07-.17c.05-.04,.12-.07,.19-.07h2.61c.06,0,.13,.03,.18,.04,.05,.03,.1,.06,.15,.11,.04,.04,.08,.11,.11,.19,0,.05,.02,.12,.02,.17s0,.11-.02,.16c0,.06-.04,.12-.1,.17l-1.01,1.01,.76,.76c.06,.08,.1,.17,.1,.26v1.28c0,.07-.03,.15-.09,.21-.06,.08-.12,.12-.2,.12-.09,0-.16-.04-.23-.1-.06-.06-.09-.13-.09-.23v-.94s-1.15-1.14-1.15-1.14Zm-2.48,1.49l.94,.94s.02,.02,.04,.03c.04,0,.06,0,.1-.03l.07-.07,.14,.13c-.04,.05-.09,.1-.14,.12-.04,.03-.09,.05-.13,.06-.05,0-.11,0-.17-.05l-.98-1,.13-.12Zm3.31,1.01h1.33s.03,0,.04,0c.04,0,.05-.04,.05-.09v-.1h.2c0,.07,0,.13,0,.18,0,.05-.04,.1-.06,.13-.03,.04-.08,.07-.15,.08h-1.4v-.2Zm1.46-4.4c-.15,0-.28-.04-.37-.13-.1-.1-.15-.21-.15-.37,0-.14,.05-.27,.15-.37,.1-.1,.22-.15,.37-.15,.13,0,.26,.05,.35,.15,.1,.11,.15,.23,.15,.37,0,.15-.05,.27-.15,.37-.09,.09-.21,.13-.35,.13"/></g></symbol></defs><g id="SIMBOLI"><use width="8.5" height="8.5" xlink:href="#Ice2022"/></g></svg>