<?xml version="1.0" encoding="UTF-8"?><svg id="Livello_2" xmlns="http://www.w3.org/2000/svg" xmlns:xlink="http://www.w3.org/1999/xlink" viewBox="0 0 8.5 8.5"><defs><style>.cls-1{fill:#fff;}.cls-2{fill:#e30613;}</style><symbol id="Pericolo2022" viewBox="0 0 8.5 8.5"><g><g id="Bivacco"><circle class="cls-2" cx="4.25" cy="4.25" r="4.25"/></g><path class="cls-1" d="M3.76,1.29L1.32,5.51c-.22,.38,.05,.85,.49,.85H6.69c.44,0,.71-.47,.49-.85L4.74,1.29c-.22-.38-.77-.38-.98,0Z"/><g><path class="cls-2" d="M3.93,5.89c-.09-.09-.13-.2-.13-.33s.04-.25,.13-.33c.09-.09,.2-.13,.33-.13s.25,.04,.33,.13c.08,.09,.13,.2,.13,.33s-.04,.24-.13,.33c-.09,.09-.19,.13-.33,.13s-.24-.04-.33-.13Z"/><path class="cls-2" d="M3.94,4.85s-.02-.03-.02-.05l-.08-2.54s0-.04,.02-.05c.01-.01,.03-.02,.05-.02h.68s.04,0,.05,.02,.02,.03,.02,.05l-.09,2.54s0,.04-.02,.05-.03,.02-.05,.02h-.52s-.04,0-.05-.02Z"/></g></g></symbol></defs><g id="SIMBOLI"><use width="8.5" height="8.5" xlink:href="#Pericolo2022"/></g></svg>