<?xml version="1.0" encoding="UTF-8"?><svg id="Livello_2" xmlns="http://www.w3.org/2000/svg" xmlns:xlink="http://www.w3.org/1999/xlink" viewBox="0 0 8.5 8.5"><defs><style>.cls-1{fill:#2fac66;}.cls-2{fill:#fff;stroke:#fff;stroke-linecap:round;stroke-linejoin:round;stroke-width:.14px;}</style><symbol id="Picnic2022" viewBox="0 0 8.5 8.5"><g><circle class="cls-1" cx="4.25" cy="4.25" r="4.25"/><path class="cls-2" d="M1.77,6.38c.23-.57,.46-1.14,.69-1.71H1.23v-.54s.02,0,.04,0c.46,0,.92,0,1.39,0,.02,0,.03,0,.04-.03,.19-.47,.38-.94,.57-1.41,0,0,0-.02,0-.03h-.98v-.54h3.93v.54h-.99s0,.02,.01,.03c.19,.47,.38,.93,.56,1.4,0,.02,.02,.03,.05,.03,.46,0,.93,0,1.39,0,.01,0,.02,0,.04,0v.54h-1.24c.23,.57,.46,1.14,.69,1.71h-.04c-.2,0-.4,0-.6,0-.03,0-.04,0-.05-.04-.22-.55-.44-1.09-.66-1.64,0-.02-.02-.03-.05-.03-.72,0-1.45,0-2.17,0-.03,0-.04,0-.05,.03-.22,.55-.44,1.1-.66,1.65,0,.02-.02,.03-.04,.03-.2,0-.4,0-.61,0-.01,0-.02,0-.04,0Zm3.31-2.25s0-.02,0-.02c-.19-.47-.38-.94-.57-1.42,0-.02-.02-.02-.04-.02-.18,0-.36,0-.55,0-.03,0-.04,0-.05,.03-.19,.47-.38,.93-.56,1.4,0,.01,0,.02-.01,.03h1.79Z"/></g></symbol></defs><g id="SIMBOLI"><use width="8.5" height="8.5" xlink:href="#Picnic2022"/></g></svg>