<?xml version="1.0" encoding="UTF-8"?><svg id="Livello_2" xmlns="http://www.w3.org/2000/svg" xmlns:xlink="http://www.w3.org/1999/xlink" viewBox="0 0 8.5 8.5"><defs><style>.cls-1{fill:#fff;fill-rule:evenodd;}.cls-2{fill:#e6007e;}</style><symbol id="Piscina2022" viewBox="0 0 8.5 8.5"><g><circle class="cls-2" cx="4.25" cy="4.25" r="4.25"/><path class="cls-1" d="M4.25,4.08l-.53-.95s-.02-.04-.02-.04c-.03-.06-.04-.12-.04-.19,0-.05,.03-.11,.04-.15,.03-.04,.05-.09,.1-.12,.04-.03,.08-.04,.12-.05l2.05-.37h.04c.11,0,.21,.04,.28,.12,.08,.07,.12,.16,.12,.27,0,.1-.03,.19-.1,.27-.06,.07-.13,.11-.23,.13l-1.32,.24,1.13,2.07c-.08,.03-.17,.04-.26,.04-.14,0-.26-.03-.35-.09-.07-.02-.13-.04-.19-.05-.06-.02-.13-.03-.19-.04-.07,0-.13,.02-.2,.04-.05,.02-.12,.04-.17,.05-.13,.06-.24,.09-.37,.09-.11,0-.23-.03-.35-.09-.04-.02-.11-.04-.16-.05-.07-.02-.13-.03-.2-.04-.07,0-.13,.02-.2,.04-.06,.02-.11,.04-.17,.05-.04,.04-.11,.05-.17,.07-.06,0-.12,.02-.18,.02-.13,0-.26-.03-.36-.09-.03,0-.05-.02-.08-.03-.03,0-.04-.02-.07-.03l2-1.1Zm1.97,.73c-.2,0-.37-.07-.49-.21-.12-.13-.2-.3-.2-.5s.07-.35,.2-.47c.13-.13,.29-.2,.48-.2s.36,.06,.48,.2c.13,.13,.2,.29,.2,.47,0,.2-.06,.37-.2,.5-.12,.13-.29,.21-.48,.21m.83,1.49c-.12,0-.23-.03-.35-.06-.11-.05-.23-.08-.36-.08-.14,0-.27,.03-.38,.08-.05,.02-.12,.04-.17,.04-.06,0-.12,.02-.18,.02-.13,0-.25-.03-.35-.06-.13-.05-.26-.08-.37-.08-.13,0-.26,.03-.37,.08-.06,.02-.13,.04-.18,.04-.05,0-.12,.02-.19,.02-.05,0-.11,0-.17-.02-.05,0-.12-.03-.18-.04-.1-.05-.22-.08-.36-.08s-.26,.03-.37,.08c-.12,.04-.23,.06-.35,.06s-.24-.03-.36-.06c-.12-.05-.24-.08-.37-.08-.13,0-.24,.03-.36,.08-.06,.02-.12,.04-.18,.04-.05,0-.11,.02-.18,.02v-.52c.06,0,.13,0,.18-.02,.06-.02,.12-.03,.18-.05,.12-.06,.23-.09,.36-.09,.14,0,.26,.03,.37,.09,.11,.04,.23,.07,.36,.07,.12,0,.24-.03,.35-.07,.1-.06,.22-.09,.37-.09,.06,0,.12,0,.2,.02,.05,.02,.12,.04,.16,.07,.13,.04,.25,.07,.35,.07,.07,0,.13,0,.19-.02,.05-.02,.12-.03,.18-.05,.1-.06,.22-.09,.37-.09,.12,0,.25,.03,.37,.09,.1,.04,.2,.07,.35,.07,.11,0,.23-.03,.35-.07,.11-.06,.23-.09,.38-.09,.13,0,.25,.03,.36,.09,.11,.04,.22,.07,.35,.07v.52Z"/></g></symbol></defs><g id="SIMBOLI"><use width="8.5" height="8.5" xlink:href="#Piscina2022"/></g></svg>