<?xml version="1.0" encoding="UTF-8"?><svg id="Livello_2" xmlns="http://www.w3.org/2000/svg" xmlns:xlink="http://www.w3.org/1999/xlink" viewBox="0 0 8.5 8.5"><defs><style>.cls-1{fill:#fff;}.cls-2{fill:#284a9a;}</style><symbol id="Porto2022" viewBox="0 0 8.5 8.5"><g><g id="cascata"><circle class="cls-2" cx="4.25" cy="4.25" r="4.25"/></g><path class="cls-1" d="M3.93,6.7v-.18c0-1.2,0-2.4,0-3.6,0-.11-.03-.18-.13-.24-.33-.2-.49-.61-.39-.97,.1-.38,.45-.64,.84-.65,.4,0,.74,.24,.85,.62,.12,.38-.02,.78-.36,.99-.11,.07-.14,.14-.14,.26,0,1.19,0,2.39,0,3.58v.17c.54-.03,1.24-.63,1.37-1.18-.07-.03-.14-.05-.21-.08-.17-.08-.22-.27-.09-.4,.3-.3,.61-.59,.92-.87,.15-.14,.36-.05,.4,.15,.07,.41,.14,.81,.2,1.22,.03,.17-.14,.31-.32,.27-.07-.01-.14-.04-.21-.06-.48,1.15-1.33,1.79-2.59,1.72-1.1-.06-1.83-.69-2.24-1.72-.06,.02-.12,.04-.18,.06-.22,.05-.37-.08-.34-.3,.06-.39,.12-.78,.18-1.17,.03-.21,.25-.29,.41-.15,.31,.28,.61,.57,.91,.86,.14,.14,.09,.34-.09,.41-.07,.03-.14,.05-.21,.07,.08,.48,.72,1.12,1.41,1.2Zm.7-4.76c0-.21-.17-.37-.37-.36-.19,0-.35,.17-.35,.37,0,.2,.17,.37,.36,.37,.19,0,.36-.18,.35-.38Z"/></g></symbol></defs><g id="SIMBOLI"><use width="8.5" height="8.5" xlink:href="#Porto2022"/></g></svg>