<?xml version="1.0" encoding="UTF-8"?><svg id="Livello_2" xmlns="http://www.w3.org/2000/svg" xmlns:xlink="http://www.w3.org/1999/xlink" viewBox="0 0 9.35 9.35"><defs><style>.cls-1{fill:#fff;}.cls-2{fill:#e30613;}</style><symbol id="Riparo2023" viewBox="0 0 9.35 9.35"><g><g id="Riparo"><circle class="cls-2" cx="4.68" cy="4.68" r="4.68"/></g><g><path class="cls-1" d="M1.96,7.41l-.04-2.84-.1,.1-.29,.11s-.06-.1-.06-.1v-.85c0-.07,.02-.1,.08-.12L7.28,1.51s.04-.01,.06-.01c0,0,.01,0,.01,0,.01,0,.05,0,.05,.02v.91s-.06,.11-.08,.12l-4.39,1.69-.03,1.76v.41s4.22,.02,4.22,.02l.04,.94s-.02,.04-.04,.04H1.96Z"/><path class="cls-1" d="M7.35,1.53s0,.04,0,.06c0,.28,0,.57,0,.85,0,.04-.01,.06-.05,.08-1.46,.56-2.92,1.13-4.39,1.69-.05,.02-.06,.04-.06,.09,0,.71,0,1.41,0,2.12v.06H7.13v.9H1.96v-2.79c-.15,.06-.3,.11-.45,.17,0-.02,0-.04,0-.06,0-.28,0-.57,0-.85,0-.05,.01-.07,.06-.08,1.86-.72,3.73-1.43,5.59-2.15,.06-.02,.13-.05,.19-.07m-.01-.08s-.01,0-.02,0l-.08,.03-.12,.05-.88,.34c-1.57,.6-3.14,1.21-4.71,1.81-.1,.04-.11,.11-.11,.16,0,.19,0,.38,0,.57v.28s0,.03,0,.04v.02s.02,.05,.04,.07c.01,0,.03,.01,.05,.01,.01,0,.02,0,.03,0l.33-.13v2.67s.04,.08,.08,.08H7.13s.08-.04,.08-.08v-.9s-.04-.08-.08-.08H2.95v-.51c0-.53,0-1.06,0-1.59l2.19-.85,2.2-.85c.07-.03,.11-.08,.11-.16,0-.19,0-.38,0-.57v-.28s0-.03,0-.04c0-.03-.02-.06-.04-.07-.02-.01-.04-.02-.06-.02h0Z"/></g></g></symbol></defs><g id="SIMBOLI"><use width="9.35" height="9.35" xlink:href="#Riparo2023"/></g></svg>