<?xml version="1.0" encoding="UTF-8"?><svg id="Livello_2" xmlns="http://www.w3.org/2000/svg" xmlns:xlink="http://www.w3.org/1999/xlink" viewBox="0 0 9.07 9.07"><defs><style>.cls-1{stroke:#1d1d1b;stroke-linecap:round;stroke-linejoin:round;stroke-width:.57px;}.cls-1,.cls-2{fill:#1d1d1b;}.cls-3{fill:#fff;}</style><symbol id="Chiesa2022" viewBox="0 0 9.07 9.07"><g><g><circle class="cls-3" cx="4.54" cy="4.54" r="4.39"/><path class="cls-2" d="M4.54,.28c2.35,0,4.25,1.9,4.25,4.25s-1.9,4.25-4.25,4.25S.28,6.88,.28,4.54,2.19,.28,4.54,.28m0-.28C2.03,0,0,2.03,0,4.54s2.03,4.54,4.54,4.54,4.54-2.03,4.54-4.54S7.04,0,4.54,0h0Z"/></g><g><rect class="cls-1" x="4.11" y="1.8" width=".85" height="5.74"/><polygon class="cls-1" points="2.62 3.78 2.62 2.93 6.45 2.93 6.45 3.78 2.62 3.78"/></g></g></symbol></defs><g id="SIMBOLI"><use width="9.07" height="9.07" xlink:href="#Chiesa2022"/></g></svg>