<?xml version="1.0" encoding="UTF-8"?><svg id="Livello_2" xmlns="http://www.w3.org/2000/svg" xmlns:xlink="http://www.w3.org/1999/xlink" viewBox="0 0 8.5 8.5"><defs><style>.cls-1{fill:#fff;}.cls-2{fill:#e30613;}.cls-3{fill:none;stroke:#fff;stroke-linecap:round;stroke-miterlimit:10;stroke-width:.57px;}</style><symbol id="Pericolo2022_4" viewBox="0 0 8.5 8.5"><g><g id="Bivacco"><circle class="cls-2" cx="4.25" cy="4.25" r="4.25"/></g><path class="cls-1" d="M3.23,7.53c-.05-.24-.09-.48-.15-.72-.01-.06-.04-.13-.09-.17-.34-.27-.56-.62-.78-.98-.2-.34-.43-.67-.66-1-.1-.15-.1-.3,.02-.42,.1-.11,.26-.12,.39,0,.25,.21,.48,.43,.72,.65,.05,.04,.1,.08,.18,.15,.01-.12,.03-.21,.03-.3,0-1.04,0-2.07,0-3.11,0-.27,.1-.41,.3-.41,.2,0,.31,.14,.31,.41,0,.69,0,1.38,0,2.07,0,.07,0,.15,.1,.16,.12,0,.1-.08,.1-.16,0-.79,0-1.58,0-2.38,0-.24,.11-.37,.31-.37,.13,0,.23,.06,.26,.19,.02,.08,.03,.17,.03,.25,0,.73,0,1.46,0,2.19,0,.04-.01,.08,0,.11,.02,.04,.06,.07,.09,.1,.03-.03,.07-.06,.1-.1,.02-.03,0-.07,0-.11,0-.67,0-1.33,0-2,0-.2,.07-.31,.21-.36,.18-.06,.35,.04,.38,.23,.01,.06,0,.12,0,.18,0,.67,0,1.33,0,2,0,.08-.04,.21,.1,.21,.14,0,.1-.13,.1-.21,0-.48,0-.96,0-1.43,0-.21,.07-.31,.23-.35,.15-.04,.27,0,.32,.15,.03,.08,.05,.16,.05,.24,0,1.17-.01,2.33-.03,3.5,0,.16-.05,.34-.11,.49-.18,.41-.38,.81-.58,1.22-.02,.04-.08,.09-.12,.09-.6,0-1.2,0-1.8,0-.01,0-.03,0-.05-.01Z"/><path class="cls-1" d="M1.19,2.79"/><path class="cls-3" d="M1.22,2.55c.22,.16,.51,.32,.87,.41,.08,.02,.16,.04,.23,.05"/><path class="cls-3" d="M6.51,3.64c.21,.05,.47,.1,.76,.12,.17,0,.33,0,.47,0"/></g></symbol></defs><g id="SIMBOLI"><use width="8.5" height="8.5" xlink:href="#Pericolo2022_4"/></g></svg>