<?xml version="1.0" encoding="UTF-8"?><svg id="Livello_2" xmlns="http://www.w3.org/2000/svg" xmlns:xlink="http://www.w3.org/1999/xlink" viewBox="0 0 8.5 8.5"><defs><style>.cls-1{fill:#fff;}.cls-2{fill:#e6007e;}</style><symbol id="Ebike2022" viewBox="0 0 8.5 8.5"><g><circle class="cls-2" cx="4.25" cy="4.25" r="4.25"/><path class="cls-1" d="M3.74,6.65h-.49s.02-.04,.03-.06c.22-.43,.45-.86,.67-1.29,.02-.04,.05-.06,.1-.06,.27,0,.54,0,.82,0-.2,.39-.4,.77-.6,1.16h.47s0,0,0,.01c-.52,.46-1.05,.91-1.57,1.37h-.01c.19-.38,.39-.75,.59-1.14Z"/><path class="cls-1" d="M3.63,2.34h1.38c0-.19-.02-.2-.2-.2-.07,0-.15,.02-.2,0-.07-.04-.15-.11-.15-.17,0-.06,.09-.16,.15-.17,.4-.03,.63-.04,.78,.45,.08,.26,.18,.52,.27,.78,0,.01,.01,.02,.01,.01,.21,0,.41-.03,.61,0,.58,.11,.99,.64,.95,1.21-.05,.6-.52,1.08-1.09,1.12-.61,.04-1.14-.35-1.25-.95-.08-.43,.04-.8,.36-1.1,.08-.08,.11-.14,.02-.23-.31,.36-.62,.72-.92,1.09-.11,.14-.23,.21-.41,.19-.1-.01-.21,0-.28,0-.1,.19-.17,.38-.28,.53-.34,.47-.99,.61-1.5,.32-.51-.28-.74-.9-.53-1.44s.79-.87,1.35-.73c.17,.04,.25,.01,.32-.14,.05-.12,.13-.22,.19-.33,.09-.16,.05-.23-.13-.23-.19,0-.18-.13-.18-.25,0-.14,.09-.23,.23-.22,.13,0,.25,.02,.38,.04,.11,.01,.25,.02,.25,.16,0,.08-.08,.17-.13,.26Zm1.83,1.31c-.27,.21-.32,.65-.1,.99,.23,.36,.68,.48,1.06,.29,.38-.19,.55-.64,.4-1.03-.15-.4-.57-.6-1.01-.48,.05,.24,.18,.43,.34,.61,.09,.1,.14,.2,.02,.3-.12,.1-.22,.04-.29-.07-.14-.2-.27-.41-.41-.61Zm-2.75-.23c-.51-.12-.96,.13-1.06,.59-.11,.48,.19,.92,.69,1,.41,.07,.84-.22,.9-.64-.24,0-.47,0-.71,0-.25,0-.32-.11-.19-.33,.12-.2,.24-.41,.37-.63Zm1.01-.7c.13,.39,.26,.78,.4,1.2,.35-.41,.67-.8,1.02-1.21-.48,0-.91,0-1.34,0-.02,0-.04,0-.08,.01Zm-.51,.56s.03-.01,.05-.02c.11,.23,.22,.45,.34,.68,.02,.04,.09,.06,.13,.09,.01-.01,.02-.03,.03-.04-.11-.34-.23-.68-.35-1.05-.08,.13-.14,.23-.2,.34Zm-.44,.74h.51c-.09-.16-.16-.28-.25-.43-.1,.16-.17,.29-.26,.43Z"/></g></symbol></defs><g id="SIMBOLI"><use width="8.5" height="8.5" xlink:href="#Ebike2022"/></g></svg>