<?xml version="1.0" encoding="UTF-8"?><svg id="Livello_2" xmlns="http://www.w3.org/2000/svg" xmlns:xlink="http://www.w3.org/1999/xlink" viewBox="0 0 8.5 8.5"><defs><style>.cls-1{fill:#fff;}.cls-2{fill:#683c11;}</style><symbol id="Rovina2022" viewBox="0 0 8.5 8.5"><g><circle class="cls-2" cx="4.25" cy="4.25" r="4.25"/><path class="cls-1" d="M6.6,2.25V6.26H1.91V2.25h.81v1.13h1.13v-1.13h.79v1.13h1.13v-1.13h.83m0-.57h-.83c-.29,0-.53,.22-.56,.5-.03-.28-.27-.5-.56-.5h-.79c-.29,0-.53,.22-.56,.5-.03-.28-.27-.5-.56-.5h-.81c-.31,0-.57,.25-.57,.57V6.26c0,.31,.25,.57,.57,.57H6.6c.31,0,.57-.25,.57-.57V2.25c0-.31-.25-.57-.57-.57h0Z"/></g></symbol></defs><g id="SIMBOLI"><use width="8.5" height="8.5" xlink:href="#Rovina2022"/></g></svg>