<?xml version="1.0" encoding="UTF-8"?><svg id="Livello_2" xmlns="http://www.w3.org/2000/svg" xmlns:xlink="http://www.w3.org/1999/xlink" viewBox="0 0 8.5 8.5"><defs><style>.cls-1{fill:#fff;fill-rule:evenodd;}.cls-2{fill:#e6007e;}</style><symbol id="Fondo2022" viewBox="0 0 8.5 8.5"><g><circle class="cls-2" cx="4.25" cy="4.25" r="4.25"/><path class="cls-1" d="M3.76,2.65l-.73,.85c-.05,.05-.11,.08-.19,.08-.07,0-.13-.02-.17-.07-.04-.04-.07-.1-.07-.16,0-.03,0-.05,.02-.08,.02-.03,.04-.06,.05-.09l.79-.93c.06-.06,.13-.09,.21-.09h1.15c.08,0,.15,.03,.2,.09l.74,.73,.6-.61s.1-.05,.16-.05c.07,0,.13,.03,.18,.07,.04,.05,.07,.12,.07,.19,0,.04-.02,.09-.05,.15l-.73,.73s-.08,.08-.12,.1c-.05,0-.08,.02-.11,.02-.04,0-.05,0-.08,0-.02,0-.04,0-.05-.03-.03,0-.04-.03-.05-.04l-.45-.45-.7,.82,.65,.62s.03,.04,.04,.06c.02,.03,.03,.04,.04,.07,0,.04,0,.06,0,.1,0,.05,0,.11-.03,.16l-.35,1.61c-.02,.07-.06,.13-.12,.18-.05,.04-.12,.07-.19,.07-.09,0-.16-.04-.22-.1-.06-.05-.09-.13-.09-.21,0-.03,0-.05,0-.07l.3-1.34-.74-.7-.62,.69s-.05,.04-.09,.06c-.07,.04-.17,.06-.28,.06H1.45c-.07,0-.13-.02-.18-.07-.05-.04-.09-.1-.12-.17v-.05c0-.07,.03-.13,.06-.2,.04-.06,.1-.1,.17-.12,.02,0,.05,0,.08,0h1.1l1.61-1.87h-.43Zm3.04,.27l.19,.1-1.83,3.67h-.2l1.84-3.77ZM.84,3.39h1.6v.19H.84v-.19Zm1.56,2.99s.05,.03,.08,.03c.03,0,.05,0,.09-.02,.02,0,.03,0,.04-.02l.13,.14s-.05,.04-.09,.05c-.03,0-.06,.03-.09,.04-.04,0-.07,.02-.11,.02-.06,0-.12-.03-.17-.07l-1.44-1.49v-.27l1.56,1.59ZM5.39,2.29c-.13,0-.24-.04-.34-.13-.09-.1-.14-.2-.14-.34s.05-.25,.14-.34c.1-.09,.2-.13,.34-.13s.24,.04,.34,.13c.09,.09,.14,.2,.14,.34s-.05,.24-.14,.34c-.1,.09-.2,.13-.34,.13m1.6,4.39c0,.13-.05,.25-.14,.34-.1,.09-.21,.13-.34,.13H1.8v-.19H6.51c.08,0,.15-.02,.2-.08,.05-.05,.08-.12,.08-.2h.2Z"/></g></symbol></defs><g id="SIMBOLI"><use width="8.5" height="8.5" xlink:href="#Fondo2022"/></g></svg>