<?xml version="1.0" encoding="UTF-8"?><svg id="Livello_2" xmlns="http://www.w3.org/2000/svg" viewBox="0 0 8.5 8.5"><defs><style>.cls-1{fill:#254a96;}.cls-2{fill:#fff;fill-rule:evenodd;stroke:#fff;stroke-linecap:round;stroke-linejoin:round;stroke-width:.14px;}</style></defs><g id="SIMBOLI"><g id="seggiovia"><circle class="cls-1" cx="4.25" cy="4.25" r="4.25"/><path class="cls-2" d="M2.61,4.32s-.03-.08-.03-.11c0-.06,.03-.12,.06-.15,.04-.05,.09-.06,.14-.06,.07,0,.14,.05,.19,.13l.44,.85c.05,.09,.12,.16,.2,.21,.08,.07,.18,.08,.29,.08,.03,0,.06,0,.09,0,.04,0,.07,0,.09,0l.56-.17s.05,0,.08,0c.06,0,.11,.02,.14,.06,.04,.04,.06,.07,.06,.12s0,.08-.04,.12c-.02,.04-.07,.07-.13,.08l-.58,.17c-.09,.03-.18,.05-.27,.05-.19,0-.36-.05-.51-.14-.15-.1-.26-.23-.35-.38l-.43-.85Zm1.83-.35V1.01h.19V3.91l-.19,.06Zm-1.35-.27c-.04-.07-.06-.14-.06-.2,0-.12,.05-.21,.14-.29,.09-.07,.19-.11,.3-.11,.07,0,.13,.02,.19,.05,.06,.03,.1,.07,.15,.15l.51,.96,.96-.26s.03,0,.06,0c.07,0,.15,.03,.22,.1,.06,.07,.1,.14,.1,.23v1.37c0,.08-.03,.15-.07,.19-.06,.04-.11,.07-.18,.07s-.12-.03-.18-.07c-.05-.05-.07-.11-.07-.19v-.3c0-.11,0-.21,0-.32v-.38l-1.01,.3s-.04,.02-.06,.02h-.06c-.08,0-.16-.02-.22-.06-.07-.05-.11-.09-.14-.17l-.56-1.08Zm.18-.66c-.06,.02-.11,.02-.14,.02-.1,0-.19-.03-.27-.09-.08-.06-.14-.13-.17-.23-.02-.05-.03-.09-.03-.15,0-.1,.03-.19,.09-.27,.07-.08,.15-.14,.25-.17,.06-.02,.1-.02,.14-.02,.09,0,.19,.03,.27,.09,.08,.06,.14,.15,.18,.24,0,.03,0,.05,0,.06v.07c0,.1-.03,.19-.09,.28-.06,.08-.14,.14-.24,.17h0Zm-.35,4.18l-.06-.18,4.48-1.53c.12-.04,.18-.12,.18-.25,0-.04,0-.07,0-.08l.18-.06s.02,.07,.02,.14c0,.09-.03,.18-.08,.26s-.13,.14-.22,.17l-4.48,1.53Z"/></g></g></svg>