<?xml version="1.0" encoding="UTF-8"?><svg id="Livello_2" xmlns="http://www.w3.org/2000/svg" xmlns:xlink="http://www.w3.org/1999/xlink" viewBox="0 0 8.5 8.5"><defs><style>.cls-1{fill:#284a9a;}.cls-2{fill:#fff;stroke:#fff;stroke-linecap:round;stroke-linejoin:round;stroke-width:.28px;}</style><symbol id="Spiaggia2022" viewBox="0 0 8.5 8.5"><g><g id="cascata"><circle class="cls-1" cx="4.25" cy="4.25" r="4.25"/></g><path class="cls-2" d="M7.45,4.73c-.42,.37-.84,.73-1.26,1.1,.18,.29,.35,.58,.53,.87-.11,.06-.21,.13-.32,.2-.1-.16-.19-.32-.29-.47-.08-.13-.16-.27-.24-.4-.02-.03-.04-.04-.08-.04-.63,0-1.27,0-1.9,0-.05,0-.06,.01-.07,.06-.07,.26-.13,.52-.2,.77,0,.02-.01,.04-.02,.06-.12-.03-.24-.06-.36-.09,.07-.26,.14-.52,.21-.79-.02,0-.04,0-.06,0-.27,0-.55,0-.82,0-.04,0-.07,.01-.09,.05-.21,.28-.42,.55-.63,.83-.02,.02-.03,.04-.05,.06-.1-.08-.2-.15-.3-.23,.09-.12,.18-.24,.27-.36,.17-.23,.35-.45,.52-.68,.03-.03,.05-.04,.09-.04,.37,0,.74,0,1.11,0,.04,0,.06,0,.07-.05,.19-.74,.39-1.49,.59-2.23,0-.02,0-.03,.01-.05-.88-.22-1.76-.45-2.65-.67,.08-.11,.14-.22,.22-.32,.48-.62,1.12-1,1.89-1.14,.09-.02,.18-.03,.27-.04,.14,0,.28,0,.42,0,.1,.02,.21,.03,.31,.05,.63,.11,1.17,.39,1.62,.85,.46,.47,.74,1.04,.83,1.7,.02,.1,.02,.21,.03,.32-.87-.22-1.72-.44-2.58-.65-.2,.75-.39,1.49-.59,2.24,.03,0,.05,0,.07,0,.6,0,1.2,0,1.81,0,.05,0,.08-.01,.11-.04,.37-.33,.75-.65,1.12-.98,.05-.04,.1-.09,.15-.13,.08,.09,.17,.18,.25,.27h0Zm-1.78-1.3c0-.41-.02-.8-.12-1.19-.05-.2-.13-.4-.26-.56-.16-.2-.35-.31-.61-.28-.18,.02-.34,.11-.48,.22-.33,.24-.59,.54-.83,.86-.08,.1-.14,.2-.22,.31,.85,.21,1.68,.43,2.53,.64Z"/></g></symbol></defs><g id="SIMBOLI"><use width="8.5" height="8.5" xlink:href="#Spiaggia2022"/></g></svg>