<?xml version="1.0" encoding="UTF-8"?><svg id="Livello_2" xmlns="http://www.w3.org/2000/svg" xmlns:xlink="http://www.w3.org/1999/xlink" viewBox="0 0 8.5 8.5"><defs><style>.cls-1{fill:#fff;}.cls-2{fill:#284a9a;}.cls-3{fill:#254a96;}</style><symbol id="Stazione2022" viewBox="0 0 8.5 8.5"><g><circle class="cls-2" cx="4.25" cy="4.25" r="4.25"/><g><path class="cls-1" d="M2.15,3.84c0-.51,0-1.02,0-1.53,0-.23,.08-.43,.25-.61,.25-.27,.57-.4,.9-.51,.23-.08,.47-.13,.72-.12,.1,0,.21,0,.31,0,.38-.02,.72,.1,1.08,.2,.23,.07,.43,.2,.59,.34,.19,.16,.3,.4,.3,.66,0,.66,0,1.33,0,1.99,0,.39,0,.78,0,1.16,0,.36-.3,.64-.63,.64-.97,0-1.93,0-2.9,0-.33,0-.63-.28-.63-.64,0-.53,0-1.06,0-1.59Zm1.93-1.58c-.43,0-.83,0-1.24,0-.12,0-.17,.04-.17,.16,0,.29,0,.59,0,.88,0,.1,.05,.16,.14,.16,.42,0,.84,0,1.27,0v-1.19Zm.29,1.19c.43,0,.84,0,1.24,0,.12,0,.17-.04,.17-.16,0-.29,0-.59,0-.88,0-.1-.05-.16-.15-.16-.42,0-.84,0-1.27,0v1.19Zm-1.71,1.39c0,.1-.02,.17,.06,.23,.08,.06,.15,.13,.26,.14,.15,0,.31-.17,.31-.34,0-.17-.16-.35-.31-.34-.1,0-.18,.07-.26,.13-.07,.06-.05,.13-.06,.18Zm3.12,.03c0-.07,.02-.15-.06-.2-.07-.05-.15-.13-.22-.13-.08,0-.18,.04-.24,.09-.06,.05-.11,.14-.11,.24,0,.1,.04,.18,.1,.24,.06,.06,.16,.1,.24,.1,.08,0,.15-.08,.23-.13,.08-.05,.06-.13,.06-.2Z"/><path class="cls-1" d="M3.33,6.24c-.1,.15-.18,.26-.26,.39h2.38c-.08-.12-.16-.24-.26-.39,.2,0,.37,0,.54,0,.05,0,.1,.05,.13,.09,.15,.21,.3,.42,.45,.64,.1,.14,.19,.28,.29,.42-.08,.03-.51,.07-.54,.04-.07-.07-.15-.14-.2-.23-.05-.08-.11-.11-.2-.11-.93,0-1.85,0-2.78,0-.1,0-.16,.02-.21,.13-.07,.16-.21,.25-.41,.22-.1-.02-.2,0-.34,0,.03-.06,.04-.1,.06-.13,.15-.22,.31-.44,.47-.66,.01-.02,.02-.05,.03-.07,.07-.09,.13-.18,.2-.26,.03-.04,.09-.07,.14-.08,.16,0,.32,0,.52,0Z"/><path class="cls-3" d="M4.08,2.26v1.19c-.43,0-.85,0-1.27,0-.1,0-.14-.05-.14-.16,0-.29,0-.59,0-.88,0-.11,.05-.16,.17-.16,.41,0,.81,0,1.24,0Z"/><path class="cls-3" d="M4.38,3.45v-1.19c.43,0,.85,0,1.27,0,.1,0,.14,.05,.15,.16,0,.29,0,.59,0,.88,0,.11-.05,.16-.17,.16-.41,0-.81,0-1.24,0Z"/><path class="cls-3" d="M2.67,4.85s-.02-.12,.06-.18c.08-.06,.15-.13,.26-.13,.15,0,.31,.17,.31,.34,0,.17-.16,.35-.31,.34-.1,0-.18-.07-.26-.14-.07-.06-.06-.13-.06-.23Z"/><path class="cls-3" d="M5.79,4.88c0,.07,.02,.15-.06,.2-.08,.04-.15,.12-.23,.13-.08,0-.18-.04-.24-.1-.06-.06-.1-.14-.1-.24,0-.1,.04-.18,.11-.24,.06-.05,.16-.1,.24-.09,.08,0,.15,.09,.22,.13,.08,.05,.05,.13,.06,.2Z"/></g></g></symbol></defs><g id="SIMBOLI"><g id="stazione22"><use width="8.5" height="8.5" xlink:href="#Stazione2022"/></g></g></svg>