<?xml version="1.0" encoding="UTF-8"?><svg id="Livello_2" xmlns="http://www.w3.org/2000/svg" xmlns:xlink="http://www.w3.org/1999/xlink" viewBox="0 0 8.5 8.5"><defs><style>.cls-1{fill:#fff;}.cls-2{fill:#008bce;}</style><symbol id="terme2022" viewBox="0 0 8.5 8.5"><g><g id="cascata"><circle class="cls-2" cx="4.25" cy="4.25" r="4.25"/></g><g><path class="cls-1" d="M4.07,4.58c1.01,0,1.82,0,2.64,0,.07,0,.07,0,.04,.06-.15,.26-.33,.5-.54,.71-.28,.28-.61,.48-.99,.61-.19,.07-.39,.12-.59,.14-.1,.01-.21,.02-.31,.03-.1,.01-.2,0-.31-.01-.11,0-.21-.02-.32-.04-.63-.13-1.16-.44-1.58-.92-.13-.15-.24-.32-.34-.49,0-.02-.02-.03-.02-.05,0-.01,0-.02,.01-.03,.01,0,.02,0,.03,0,.03,0,.06,0,.09,0,.8,0,1.59,0,2.2,0Z"/><path class="cls-1" d="M4.15,7.06c-.43,0-.85,0-1.28,0-.06,0-.06,0-.04-.06,.08-.24,.16-.48,.24-.72,0-.02,.01-.03,.02-.05,.01-.03,.02-.03,.05-.03,.04,0,.07,.01,.11,.03,.11,.03,.21,.07,.32,.09,.11,.02,.22,.04,.33,.05,.17,.01,.34,.01,.51,.01,.29,0,.57-.06,.84-.16,.04-.02,.08-.03,.12-.04,.04-.01,.04,0,.05,.03,.06,.2,.12,.41,.18,.61,.02,.05,.03,.11,.05,.16,.01,.04,0,.05-.04,.05-.07,.01-.15,.01-.22,.01-.3,0-.6,0-.89,0-.12,0-.23,0-.35,0Z"/><path class="cls-1" d="M4.34,3.37c0-.12,0-.24,0-.36,0-.14,0-.29,.01-.43,.01-.16,.06-.3,.13-.44,.19-.33,.46-.55,.83-.65,.15-.04,.3-.05,.45-.03,.33,.03,.61,.18,.83,.42,.12,.13,.21,.28,.27,.45,.02,.04,.03,.09,.04,.14,0,.02,0,.04-.02,.06-.05,.04-.09,.08-.14,.12,0,0-.01,0-.02,.01,0,0-.02,0-.02,0,0,0,0-.02,0-.03,0-.04-.02-.08-.03-.12-.09-.32-.27-.56-.57-.71-.16-.08-.33-.12-.51-.11-.26,.01-.48,.1-.68,.27-.15,.13-.25,.29-.31,.48-.03,.09-.04,.19-.04,.28,0,.26,0,.53,0,.79,0,.19,0,.38,0,.57,0,0,0,.01,0,.02,0,.02,0,.03-.03,.03-.06,0-.12,0-.17,0-.02,0-.03,0-.03-.03,0-.01,0-.03,0-.04,0-.23,0-.46,0-.69h0Z"/><path class="cls-1" d="M4.17,3.33c0,.07,0,.14,0,.21,0,.18,0,.35,0,.53,0,.06,0,.06-.06,.06-.04,0-.09,0-.13,0-.03,0-.04,0-.04-.04,0-.01,0-.03,0-.04,0-.39,0-.77,0-1.16,0-.12,0-.24-.02-.36-.03-.17-.1-.33-.22-.46-.05-.06-.11-.12-.17-.17-.12-.11-.27-.18-.43-.21-.24-.04-.48-.03-.7,.08-.24,.12-.41,.3-.52,.55-.04,.09-.07,.18-.08,.27,0,.05-.02,.06-.07,.03-.05-.04-.09-.08-.13-.12-.01-.01-.02-.03-.01-.05,.06-.22,.16-.42,.32-.59,.15-.15,.31-.27,.51-.35,.11-.04,.22-.06,.34-.07,.1,0,.19,0,.29,0,.14,.01,.27,.05,.39,.12,.27,.14,.47,.34,.61,.61,.06,.11,.1,.23,.11,.35,0,.06,0,.13,0,.19,0,.06,0,.12,0,.18,0,.14,0,.27,0,.41Z"/><path class="cls-1" d="M5.64,1.87c.21,0,.4,.06,.56,.19,.2,.17,.31,.39,.32,.65,0,.05,0,.1,0,.15,0,.02,0,.04-.02,.05-.06,.05-.11,.1-.17,.14,0,0,0,0-.01,.01-.01,.01-.02,0-.02-.01,0-.04,0-.09,0-.13,0-.09,0-.19-.01-.28,0-.11-.05-.2-.11-.28-.08-.1-.18-.19-.3-.24-.03-.01-.07-.02-.11-.02-.08,0-.15,0-.23,0-.05,0-.1,.01-.15,.04-.11,.05-.2,.13-.28,.23-.07,.09-.1,.18-.1,.29,0,.22,0,.44,0,.66,0,.23,0,.45,0,.68,0,.03,0,.06,0,.1,0,.02,0,.03-.03,.03-.06,0-.11,0-.17,0-.02,0-.03,0-.03-.03,0-.01,0-.02,0-.03,0-.37,0-.73,0-1.1,0-.14,0-.28,0-.42,0-.02,0-.04,.01-.06,.03-.07,.07-.14,.11-.21,.15-.25,.37-.38,.66-.41,.03,0,.07,0,.1,0Z"/><path class="cls-1" d="M3.76,3.42c0,.13,0,.26,0,.39,0,.09,0,.18,0,.27,0,.05,0,.05-.05,.05-.04,0-.09,0-.13,0-.03,0-.04,0-.04-.04,0,0,0,0,0-.01,0-.41,0-.82,0-1.23,0-.08,0-.16,0-.24,0-.02,0-.03-.01-.05-.02-.05-.04-.09-.07-.14-.11-.17-.26-.29-.46-.31-.21-.03-.4,.02-.56,.18-.12,.12-.18,.27-.2,.43-.01,.11-.01,.21-.02,.32,0,.01,0,.03,0,.04-.02,0-.02-.01-.03-.02-.06-.06-.11-.11-.17-.17-.02-.02-.03-.04-.02-.06,.01-.1,.02-.19,.04-.29,.07-.3,.35-.61,.73-.66,.24-.03,.46,.02,.66,.16,.18,.14,.29,.31,.34,.53,.02,.07,.02,.15,.02,.23,0,.19,0,.38,0,.57,0,.02,0,.03,0,.05,0,0,0,0,0,0Z"/><path class="cls-1" d="M3.11,3.38c0-.23,0-.45,0-.68,0-.04-.01-.06-.03-.09-.04-.05-.09-.09-.16-.1-.09-.02-.17,0-.24,.07-.04,.04-.06,.09-.06,.15,0,.07,0,.13,0,.2,0,.17,0,.35,0,.52,0,.01,0,.04,0,.04-.02,0-.03-.01-.04-.02-.05-.05-.11-.11-.16-.16-.01-.01-.02-.03-.02-.05,0-.19,0-.39,0-.58,0-.02,0-.04,.01-.07,.07-.19,.19-.31,.4-.34,.15-.02,.28,.02,.39,.13,.06,.06,.11,.13,.13,.21,.01,.04,.01,.09,.02,.13,0,.1,0,.2,0,.3,0,.26,0,.51,0,.77,0,.08,0,.16,0,.24,0,0,0,.02,0,.02,0,.04,0,.05-.05,.05-.05,0-.11,0-.16,0-.04,0-.05,0-.05-.05,0-.01,0-.02,0-.03,0-.22,0-.44,0-.67Z"/><path class="cls-1" d="M5.15,3.45c0-.21,0-.41,0-.62,0-.05,0-.1,.01-.16,0-.13,.07-.22,.17-.3,.2-.16,.46-.15,.64,.03,.08,.08,.12,.16,.13,.27,0,.08,.01,.16,.02,.24,0,.1,0,.2,0,.3,0,.03,0,.05-.03,.07-.05,.05-.1,.1-.16,.15,0,0-.01,.01-.02,.01,0,0-.01,.01-.02,0-.01,0,0-.01,0-.02,0-.07,0-.13,0-.2,0-.13,0-.26,0-.38,0-.05,0-.11-.01-.16-.03-.18-.23-.26-.38-.16-.04,.02-.07,.05-.1,.08-.02,.02-.02,.03-.02,.05,0,.1,0,.2,0,.3,0,.3,0,.6,0,.89,0,.07,0,.13,0,.2,0,.03,0,.04-.04,.04-.05,0-.1,0-.15,0-.04,0-.04,0-.04-.04,0-.11,0-.21,0-.32,0-.11,0-.22,0-.32Z"/></g></g></symbol></defs><g id="SIMBOLI"><use width="8.5" height="8.5" xlink:href="#terme2022"/></g></svg>